/* XPM */
static const char *ace_xpm[] = {
/* columns rows colors chars-per-pixel */
"64 64 203 2",
"   c black",
".  c #010101",
"X  c #020202",
"o  c #13130E",
"O  c gray16",
"+  c #434031",
"@  c #494636",
"#  c #414141",
"$  c gray28",
"%  c #4C4C4C",
"&  c #4E4E4E",
"*  c #565656",
"=  c #625E49",
"-  c #635E49",
";  c #645F4A",
":  c #65604B",
">  c #66614B",
",  c #67624C",
"<  c #68634D",
"1  c #69644E",
"2  c #6A654E",
"3  c #6B6650",
"4  c #6F6A52",
"5  c #726D54",
"6  c #736D55",
"7  c #746E56",
"8  c #756F56",
"9  c #767057",
"0  c #777259",
"q  c #787359",
"w  c #79745A",
"e  c #7A745B",
"r  c #7B755B",
"t  c #7C765C",
"y  c #7D775D",
"u  c #7E785D",
"i  c #7F795E",
"p  c #736F60",
"a  c #767676",
"s  c gray50",
"d  c #817B5F",
"f  c #847E62",
"g  c #857F63",
"h  c #888265",
"j  c #898366",
"k  c #8A8366",
"l  c #8B8569",
"z  c #8C8568",
"x  c #8D8668",
"c  c #8E8769",
"v  c #8F886A",
"b  c #8F896A",
"n  c #918B6C",
"m  c #928B6C",
"M  c #938C6D",
"N  c #958E6E",
"B  c #979070",
"V  c #989171",
"C  c #999271",
"Z  c #9A9272",
"A  c #9B9373",
"S  c #9B9473",
"D  c #9D9675",
"F  c #9E9775",
"G  c #A09977",
"H  c #A19A77",
"J  c #A39B79",
"K  c #A49C79",
"L  c #A69E7B",
"P  c #A79F7C",
"I  c #A8A07C",
"U  c #A8A17D",
"Y  c #A9A17E",
"T  c #ABA37F",
"R  c gray52",
"E  c #ADA580",
"W  c #AEA681",
"Q  c #AFA782",
"!  c #B0A882",
"~  c #B1A983",
"^  c #B2A984",
"/  c #B3AA84",
"(  c #B4AB85",
")  c #B6AE87",
"_  c #B7AF88",
"`  c #B8B089",
"'  c #B9B089",
"]  c #BAB18A",
"[  c #BCB38B",
"{  c #BDB48C",
"}  c #BEB58D",
"|  c #BFB68D",
" . c #A7A7A7",
".. c #C0B78E",
"X. c #C1B88F",
"o. c #C2B990",
"O. c #C3BA91",
"+. c #C4BB91",
"@. c #C5BC92",
"#. c #C6BD93",
"$. c #C7BE94",
"%. c #C6BE97",
"&. c #C8BF94",
"*. c #C9BF95",
"=. c #CAC096",
"-. c #CBC196",
";. c #CCC297",
":. c #CDC398",
">. c #CDC498",
",. c #CEC599",
"<. c #CFC69A",
"1. c #D0C79A",
"2. c #D1C79B",
"3. c #D2C89C",
"4. c #D3C99C",
"5. c #D4CA9D",
"6. c #D5CB9E",
"7. c #D6CC9F",
"8. c #D7CD9F",
"9. c #D7CDA1",
"0. c #D8CEA0",
"q. c #D9CEA1",
"w. c #DAD0A2",
"e. c #DBD1A3",
"r. c #DCD2A3",
"t. c #DDD3A4",
"y. c #DED4A5",
"u. c #DFD5A5",
"i. c #E0D6A6",
"p. c #E1D6A7",
"a. c #E2D7A7",
"s. c #E3D8A8",
"d. c #E4D9A9",
"f. c #E5DAAA",
"g. c #E6DBAA",
"h. c #E6DCAB",
"j. c #E7DDAC",
"k. c #E8DDAC",
"l. c #E9DEAD",
"z. c #EADFAE",
"x. c #EBE0AE",
"c. c #ECE1AF",
"v. c #ECE1B0",
"b. c #ECE2B1",
"n. c #EDE2B1",
"m. c #EDE2B2",
"M. c #EDE3B3",
"N. c #EDE3B4",
"B. c #EDE3B5",
"V. c #EEE3B6",
"C. c #EEE4B6",
"Z. c #EEE4B7",
"A. c #EEE4B8",
"S. c #EEE5B8",
"D. c #EEE5B9",
"F. c #EFE5BA",
"G. c #EFE5BB",
"H. c #EFE6BB",
"J. c #EFE6BC",
"K. c #EFE6BD",
"L. c #F0E7BE",
"P. c #F0E7BF",
"I. c #F0E7C0",
"U. c #F0E8C1",
"Y. c #F0E8C2",
"T. c #F1E8C2",
"R. c #F1E8C3",
"E. c #F1E9C3",
"W. c #F1E9C4",
"Q. c #F1E9C5",
"!. c #F1E9C6",
"~. c #F1EAC6",
"^. c #F2EAC6",
"/. c #F2EAC7",
"(. c #F2EAC8",
"). c #F2EBC9",
"_. c #F2EBCA",
"`. c #F3EBCB",
"'. c #F3ECCB",
"]. c #F3ECCC",
"[. c #F3ECCD",
"{. c #F3EDCE",
"}. c #F4EDCF",
"|. c #F4EDD0",
" X c #F4EED1",
".X c #F4EED2",
"XX c #F5EFD4",
"oX c #F5EFD5",
"OX c #F5F0D6",
"+X c #F5F0D7",
"@X c #F6F1DA",
"#X c #F6F1DB",
"$X c #F7F2DC",
"%X c #F7F2DD",
"&X c #F7F3DF",
"*X c #F8F4E2",
"=X c #F9F5E4",
"-X c #F9F6E6",
";X c #F9F6E7",
":X c #F9F6E8",
">X c #FAF7E9",
",X c #FAF7EB",
"<X c None",
/* pixels */
"<X<X<X<X<X=.&.#.O.X.X...} } [ ] ] ] ] ] ] ] ] ] ] ] ] ] ] ] ] ] ] ] ] ] ] ] ] ] ] ] ] ] ) ] ` ` _ ) ( ~ Q P P J F A B <X<X<X<X<X",
"<X<X<X,.:.:.=.;.=.;.;.=.&.&.&.#.#.+.#.#.#.#.#.#.#.#.#.#.#.#.#.#.#.#.#.#.#.#.#.#.#.#.#.#.#.#.#.O.O...[ ] ( Q Y K S A M c j <X<X<X",
"<X<X,.1.,.1.1.4.8.8.q.q.q.9.8.8.8.8.5.8.8.8.4.8.4.9.8.4.4.9.8.8.8.8.4.9.8.8.4.9.8.8.8.8.4.8.4.4.4.1.:.$...] ~ P G B v j f d <X<X",
"<X,.,.1.4.8.w.u.a.g.h.k.h.j.j.g.g.h.h.h.g.g.h.g.h.g.g.j.g.g.g.g.g.g.j.g.g.g.g.g.h.h.s.h.h.g.g.g.g.i.e.8.,.#.} ^ L A v f u w 8 <X",
"<X,.1.4.q.u.g.x.D.E.Q.Q.Q.E.I.L.L.L.D.L.D.K.K.K.K.K.K.D.L.K.D.L.D.K.D.K.K.K.D.K.K.K.D.L.D.K.D.D.V.v.k.g.e.4.&.} Q G n f w 6 4 <X",
"=.:.,.8.u.k.D._.+X$X&X@X+X|.}.[.[.[.[.[.[.'.[.[.'.[.'.[.[.'.[.[.}.'.}.[.`.[.[.[.[.[.[.[.[.[.`.'._.Q.K.c.g.u.4.&.] I N f w 5 2 > ",
"&.;.1.q.g.D.|.&X-X-X*X*X@X+X|.|.[.[.[.[.[.[.[.[.[.}.[.}.[.}.[.}.[.[.}.[.[.}.[.[.[.[.[.[.[.[.[.[._._.E.A.x.g.t.1...Q A j 0 3 ; = ",
"#.=.4.i.x._.*X:X,X-X*X&X|.}.[.[.'.'.[.'.'.[.'.'.'._.[._.'._.'._.'.'.`._.[._.'.'._.'.[.'.[.'.'.'._.Q.I.L.m.k.i.q.&.) G l w 2 = = ",
"O.;.4.s.D.XX-X:X-X*X$XXX|.`._.Q.Q.~.~.~.~.~.~.~.~.~.~.~.Q.Q.Q.Q.Q.Q.Q.Q.~.~.~.~.~.~.~.~.~.~.Q.Q.Q.Q.E.D.V.k.s.e.,.} Y v w < = = ",
"X.=.q.g.E.&X:X-X*X&XXX}._.Q.E.E.U.U.U.U.U.U.U.U.U.U.U.U.U.L.E.E.E.E.U.U.U.U.U.U.U.U.U.U.U.U.U.U.I.L.D.B.c.k.f.t.4...Y M w < = = ",
"X.;.q.j.Q.&X-X*X@XXX}._.R.L.L.L.L.L.L.L.L.K.K.K.K.K.K.K.L.K.L.K.K.K.L.K.L.L.L.L.K.K.K.K.L.D.L.H.L.D.B.m.x.k.g.t.4.$.Q N t , = = ",
"..=.q.k.Q.@X&X&X+X}._.Q.I.D.L.D.D.D.B.D.D.D.D.D.D.D.D.D.D.D.D.D.D.D.D.D.D.D.B.D.D.D.D.D.D.D.D.D.D.B.V.m.k.j.g.t.4.&.^ B t , = = ",
"} &.q.k.Q.@X@XXX|._.E.E.L.A.V.V.B.M.B.B.M.B.M.M.B.B.b.B.B.B.B.m.B.b.B.M.B.M.B.M.B.b.M.M.B.M.B.B.B.m.m.x.j.j.s.u.4.=.^ B u , = = ",
"{ &.q.j.E.|.|.|.`.Q.K.K.V.m.m.v.b.M.b.x.v.v.v.m.v.v.v.v.k.m.c.m.v.v.x.m.x.m.x.m.v.v.m.c.v.v.x.m.m.c.c.k.j.g.i.t.8.&.^ B u > = = ",
"[ $.8.h.L.}.|.}._.E.L.D.m.m.x.c.c.c.c.c.x.c.c.c.c.c.x.m.c.c.c.c.v.x.c.c.c.c.c.c.v.x.M.c.x.c.c.c.c.c.c.k.j.g.i.t.4.$.^ A t > = = ",
"] #.8.h.L.[.}._._.I.K.D.B.m.c.c.c.c.c.c.c.c.c.c.c.c.c.x.c.c.c.c.x.m.c.c.c.c.c.c.x.v.x.c.c.c.c.c.c.c.x.k.k.g.i.e.4.$.~ A t > = = ",
"] #.9.g.K.'.}.'.Q.U.L.D.B.v.c.c.c.c.c.c.c.c.c.c.c.c.c.c.c.c.c.c.c.c.c.c.c.c.c.c.c.c.c.c.c.c.c.c.c.c.x.k.j.f.s.t.4.$.^ A t > = = ",
"] #.4.g.K.[.[._.~.U.K.D.B.b.c.x.c.c.c.c.c.c.c.c.c.c.c.c.c.c.c.c.c.c.c.c.c.c.c.c.c.c.c.c.c.c.c.c.c.c.x.k.f.g.u.e.4.$.^ B t > = = ",
"] #.8.g.K.'.[.[.~.U.K.D.B.b.v.b.c.c.c.c.c.c.c.c.c.c.c.c.c.c.c.c.c.c.c.c.c.c.c.c.c.c.c.c.c.c.c.c.c.c.x.k.f.g.i.e.9.$.^ B t ; = = ",
"] #.8.g.D.[.[.[.~.U.K.D.b.v.v.x.c.c.c.c.c.c.c.c.c.c.c.c.c.c.c.c.c.c.c.c.c.c.c.c.c.c.c.c.c.c.c.c.c.c.x.k.g.g.s.t.4.$.^ A t > = = ",
"] #.4.g.L.[.[.'.~.U.L.D.M.m.c.c.c.c.c.c.c.c.c.c.c.c.c.c.c.c.c.c.c.c.c.c.c.c.c.c.c.c.c.c.c.c.c.c.c.c.x.k.h.g.s.w.4.$.^ A t = = = ",
"] #.9.g.K.'.[.'.~.U.K.D.M.c.c.c.c.c.c.c.c.c.c.c.c.c.c.c.c.c.c.c.c.c.c.c.c.c.c.c.c.c.c.c.c.c.c.c.c.c.x.k.g.g.i.t.4.$.^ B t , = = ",
"] #.8.g.D.[.[.[.~.U.L.D.B.x.c.c.c.c.c.c.c.c.c.c.c.c.c.c.c.c.c.c.c.c.c.c.c.c.c.c.c.c.c.c.c.c.c.c.c.c.x.k.h.g.u.w.4.=.^ A t ; = = ",
"] #.8.h.L.[.[.'.Q.U.K.D.M.m.c.c.c.c.c.c.c.c.c.c.c.c.c.c.c.c.c.c.c.c.c.c.c.c.c.c.c.c.c.c.c.c.c.c.c.c.x.k.h.g.i.t.4.$.^ B t , = = ",
"] #.8.g.D.}.[.'.Q.E.D.D.M.m.x.c.c.c.c.c.c.c.c.c.c.c.c.c.c.c.c.c.c.c.c.c.c.c.c.c.c.c.c.c.c.c.c.c.c.x.x.k.j.g.s.e.4.=.( B y : = = ",
"] #.8.g.K.'.[.[.Q.E.K.D.B.x.c.c.c.c.c.c.c.c.c.c.c.c.c.c.c.c.c.c.c.c.c.c.c.c.c.c.c.c.c.c.c.c.c.c.c.m.x.j.f.s.s.e.4.$.^ B t > = = ",
"] #.4.j.L.[.}.`.Q.U.K.D.M.m.c.c.c.c.c.c.c.c.c.c.c.c.c.c.1.f + o o + f 1.c.c.c.c.c.c.c.c.c.c.c.c.c.c.x.j.j.s.s.e.4.$.^ A t : = = ",
"] #.9.g.D.[.[._.Q.E.K.D.B.c.c.c.c.c.c.c.c.c.c.c.c.c.x.` @ . . . . . . @ _ c.c.c.c.c.c.c.c.c.c.c.c.c.x.j.j.f.u.u.8.$.^ B t : = = ",
"] #.8.g.K._.[.[.~.U.K.D.B.x.c.c.c.c.c.c.c.c.c.c.c.c.4.@ . . . . . . . . @ 1.c.c.c.c.c.c.c.c.c.c.c.c.x.k.h.s.s.e.4.$.^ A t : = = ",
"] #.8.g.K.[.}.`.~.U.K.D.B.v.c.c.c.c.c.c.c.c.c.c.c.c.f . . . . . . . . . . f c.c.c.c.c.c.c.c.c.c.c.c.x.k.j.j.u.e.5.$.( B t : = = ",
"] #.4.g.D.'.[._.~.U.L.D.B.v.x.c.c.c.c.c.c.c.c.c.c.c.+ . . . . . . . . . . + c.c.c.c.c.c.c.c.c.c.c.c.x.k.j.s.u.r.5.=.( B t : = = ",
"] #.9.g.L.[.[.[.~.U.K.D.M.v.m.x.c.c.c.c.c.c.c.c.c.c.o . . . . . . . . . . o c.c.c.c.c.c.c.c.c.c.c.c.x.k.j.s.s.r.4.#.^ B t : = = ",
"] #.8.h.L.[.[.'.Q.U.K.D.M.m.c.c.c.c.c.c.c.c.c.c.c.c.o . . . . . $ a & . . o x.c.c.c.c.c.c.c.c.c.c.c.x.k.f.f.s.t.4.$.^ A t > = = ",
"] #.8.h.D.[.[.'.~.U.K.D.M.c.c.c.c.c.c.c.c.c.c.c.c.x.+ . . . . . a  .R # . + c.c.c.c.c.c.c.c.c.c.c.c.x.k.j.s.u.e.4.$.^ B t > = = ",
"] #.8.s.L.'.[.[.~.U.K.D.B.x.c.c.c.c.c.c.c.c.c.c.c.c.f . . . . . % R s * O l c.c.c.c.c.c.c.c.c.c.c.c.x.k.j.g.s.e.9.$.^ B t : = = ",
"] #.8.h.D.[.[.'.~.U.L.D.M.m.c.c.c.c.c.c.c.c.c.c.c.c.1.@ . . . . . # * & p 9.c.c.c.c.c.c.c.c.c.c.c.c.x.k.f.g.i.e.4.$.^ A t : = = ",
"] #.8.s.D.[.[.'.~.U.L.D.M.m.x.c.c.c.c.c.c.c.c.c.c.c.c._ @ . . . . . O p $.x.m.x.c.c.c.c.c.c.c.c.c.c.x.k.h.g.s.w.4.$.^ B t : = = ",
"] #.9.h.L.[.[.[.~.U.K.D.B.x.c.c.c.c.c.c.c.c.c.c.c.c.c.c.1.f + o o + l 9.v.v.c.c.c.c.c.c.c.c.c.c.c.c.x.k.g.g.s.e.8.$.( B t : = = ",
"] $.8.g.D.[.[.'.~.U.K.D.M.m.c.c.c.c.c.c.c.c.c.c.c.c.c.c.c.c.c.c.x.c.c.c.c.c.c.c.c.c.c.c.c.c.c.c.c.c.x.k.h.s.s.t.4.$.^ A t : = = ",
"] $.4.g.K.[.[.'.~.U.K.D.B.c.c.c.c.c.c.c.c.c.c.c.c.c.c.c.c.c.c.c.c.c.c.c.c.c.c.c.c.c.c.c.c.c.c.c.c.c.x.k.h.g.u.e.4.$.^ B t : = = ",
"] #.4.h.K.'.[.'.~.U.L.D.B.v.c.c.c.c.c.c.c.c.c.c.c.c.c.c.c.c.c.c.c.c.c.c.c.c.c.c.c.c.c.c.c.c.c.c.c.x.x.k.j.g.s.e.4.=.( B y : = = ",
"] #.9.g.K.[.}._.~.U.K.D.B.v.c.x.c.c.c.c.c.c.c.c.c.c.c.c.c.c.c.c.c.c.c.c.c.c.c.c.c.c.c.c.c.c.c.c.c.m.x.j.f.s.s.e.4.$.^ S t : = = ",
"] #.8.g.K.'.[.[.~.U.K.D.b.v.x.M.c.c.c.c.c.c.c.c.c.c.c.c.c.c.c.c.c.c.c.c.c.c.c.c.c.c.c.c.c.c.c.c.c.c.x.j.j.s.s.e.4.$.^ B t : = = ",
"] #.4.j.D.[.}._.Q.U.K.D.B.v.v.x.c.c.c.c.c.c.c.c.c.c.c.c.c.c.c.c.c.c.c.c.c.c.c.c.c.c.c.c.c.c.c.c.c.c.x.j.j.f.u.u.5.=.^ B t : = = ",
"` $.9.g.L.'.[.'.Q.U.L.D.V.x.c.c.c.c.c.c.c.c.c.c.c.c.c.c.c.c.c.c.c.c.c.c.c.c.c.c.c.c.c.c.c.c.c.c.c.c.x.k.h.s.s.e.4.#.( B t : = = ",
"` #.4.g.K.'.[._.Q.U.K.D.m.m.c.c.c.c.c.c.c.c.c.c.c.c.c.c.c.c.c.c.c.c.c.c.c.c.c.c.c.c.c.c.c.c.c.c.c.c.x.k.j.h.u.e.5.=.^ B t : = = ",
"` @.4.g.K._.[.'.Q.U.K.D.V.x.c.c.c.c.c.c.c.c.c.c.c.c.c.c.c.c.c.c.c.c.c.c.c.c.c.c.c.c.c.c.c.c.c.c.c.c.x.k.h.s.s.w.5.#.^ A w : = = ",
"` @.4.g.D._.[._.Q.U.K.D.B.v.c.c.c.c.c.c.c.c.c.c.c.c.c.c.c.c.c.c.c.c.c.c.c.c.c.c.c.c.c.c.c.c.c.c.c.c.x.k.j.s.a.w.5.#.^ B w : = = ",
"` @.1.s.V.Q.}._.Q.L.L.B.V.c.c.c.c.c.c.c.c.c.c.c.c.c.c.c.c.c.c.c.c.c.c.c.c.c.c.m.c.c.c.c.c.c.x.v.c.c.k.k.h.s.i.w.4.#.~ N w - - - ",
") ..1.i.m.Q._.Q.E.L.L.B.m.m.c.c.x.m.c.c.c.c.c.c.c.c.c.c.x.m.c.c.c.c.c.c.c.c.c.k.c.c.c.c.c.x.m.v.c.x.x.k.h.g.u.w.1.O.T n 9 - - - ",
"( ..:.t.k.L.R.I.L.L.D.m.m.c.x.x.x.x.x.x.x.x.x.x.x.x.x.x.x.x.x.v.c.c.k.c.c.c.z.m.x.x.x.x.x.x.x.x.k.k.k.j.g.i.u.8.,.} Y z 4 = - = ",
"^ ` &.4.s.m.A.L.D.V.m.c.x.k.k.k.j.j.j.j.k.k.k.k.k.k.k.k.k.k.j.k.k.k.k.k.k.k.j.j.k.k.k.k.k.k.j.j.k.j.j.g.a.u.w.4.=.] G h 2 = = = ",
"E ( X.1.q.k.k.m.m.m.m.k.k.h.h.j.j.j.j.j.h.j.h.h.h.h.f.f.j.f.f.f.g.g.g.h.f.f.j.j.h.g.h.h.f.j.f.j.j.j.g.s.t.e.8.,.O.~ B y > = = = ",
"P W ` #.4.t.g.k.k.k.k.j.h.g.g.g.s.j.s.g.s.h.s.h.g.g.g.g.f.f.g.s.g.g.s.g.g.g.g.s.g.g.s.g.g.g.g.s.s.g.s.u.w.q.4.=.] L v 6 : = = = ",
"P E ^ [ &.4.t.s.g.g.g.s.g.i.i.i.s.u.s.s.u.s.u.s.i.i.s.i.s.s.u.s.i.s.s.u.s.i.u.s.s.s.s.u.s.i.i.s.i.u.u.w.9.1.=.} Q B i 2 = = = = ",
"K K P W ..&.3.q.w.e.u.t.t.t.e.t.e.e.e.e.e.e.e.e.w.t.w.t.e.t.e.t.e.e.t.e.e.t.e.e.w.e.t.e.e.e.e.w.e.w.9.4.,.=.} ~ F j 5 = = = = = ",
"F D F L Q ` X.&.,.4.4.4.8.4.4.8.4.5.5.4.5.5.5.5.5.4.4.4.4.4.8.4.4.4.4.4.8.4.4.4.4.4.4.4.4.8.4.4.4.4.>.=.X.] T D l 0 : - = = = = ",
"A A B A F Y Q ) } ..#.$.&.$.$.$.$.$.=.#.+.=.#.=.=.#.=.=.$.$.$.$.&.&.$.$.$.$.$.=.$.$.=.$.$.$.#.#.#.X...` ~ L S l 0 > = = = = = = ",
"B M v v M N A G P Y ~ ~ ^ ^ ^ ( ( ( ^ ( ( ( ( ( ~ ^ ( ^ ^ ( ^ ( ^ ^ ^ ^ ^ ( ^ ^ ^ ( ^ ^ ^ ^ ^ ~ ~ T I G V c d 6 > = = = = = = = ",
"<Xc h h f f h c v M N B A B B A C B B B B B B B B B B B A B B B A B A B A B B A B B A B A B A V N m l h u 5 2 = : - = = = = = <X",
"<Xj f u t 0 0 0 w w t u u t t t t t t t t t t t y t t t t t t t t t t t w t t t t t t t t t w w q 9 5 2 > = = = = = = = = = = <X",
"<X<Xd w 6 4 3 2 2 , , , , > > > > > : : : : : : , : : : : : : : : : : : , > : : > ; ; , > > > > - - = = = = = = = = = = = = <X<X",
"<X<X<X8 4 2 > = = = = = = = = = = = = = = = = = = = = = = = = = = = = = = = = = = = = = = = = = = = = = = = = = = = = = = <X<X<X",
"<X<X<X<X<X> = = = = = = = = = = = = = = = = = = = = = = = = = = = = = = = = = = = = = = = = = = = = = = = = = = = = = <X<X<X<X<X"
};
