/* XPM */
static const char *five_xpm[] = {
/* columns rows colors chars-per-pixel */
"64 64 246 2",
"   c black",
".  c #010101",
"X  c #020202",
"o  c gray1",
"O  c #040404",
"+  c #060606",
"@  c #070707",
"#  c #090909",
"$  c #13120E",
"%  c #13130E",
"&  c #14130F",
"*  c gray16",
"=  c gray23",
"-  c #423E31",
";  c #434031",
":  c #434033",
">  c #494536",
",  c #494636",
"<  c #494637",
"1  c #414141",
"2  c #434343",
"3  c #464646",
"4  c gray28",
"5  c #4C4C4C",
"6  c #4E4E4E",
"7  c #505050",
"8  c #515151",
"9  c #565656",
"0  c #625E49",
"q  c #635E49",
"w  c #645F4A",
"e  c #65604B",
"r  c #66614B",
"t  c #67624C",
"y  c #68634D",
"u  c #69644E",
"i  c #6A654E",
"p  c #6B6650",
"a  c #6F6A52",
"s  c #726D54",
"d  c #736D55",
"f  c #746E56",
"g  c #756F56",
"h  c #726E5F",
"j  c #726F5F",
"k  c #767057",
"l  c #777259",
"z  c #787359",
"x  c #79745A",
"c  c #7A745B",
"v  c #7B755B",
"b  c #7C765C",
"n  c #7D775D",
"m  c #7E785D",
"M  c #7F795E",
"N  c #686868",
"B  c #6D6D6D",
"V  c #736F60",
"C  c #767676",
"Z  c #777777",
"A  c gray47",
"S  c #797979",
"D  c gray50",
"F  c #817B5F",
"G  c #827C60",
"H  c #847E62",
"J  c #857F63",
"K  c #857F65",
"L  c #857F66",
"P  c #888265",
"I  c #898366",
"U  c #898367",
"Y  c #8A8366",
"T  c #8B8569",
"R  c #8C8568",
"E  c #8D8668",
"W  c #8E8769",
"Q  c #8F886A",
"!  c #8F896A",
"~  c #918B6C",
"^  c #928B6C",
"/  c #918A6E",
"(  c #918B6F",
")  c #938C6D",
"_  c #958E6E",
"`  c #8D8A7B",
"'  c #979070",
"]  c #989171",
"[  c #999271",
"{  c #9A9272",
"}  c #9B9373",
"|  c #9B9473",
" . c #9D9675",
".. c #9E9775",
"X. c #A09977",
"o. c #A19A77",
"O. c #A39B79",
"+. c #A49C79",
"@. c #A69E7B",
"#. c #A79F7C",
"$. c #A8A07C",
"%. c #A8A17D",
"&. c #A9A17E",
"*. c #ABA37F",
"=. c gray52",
"-. c #868686",
";. c gray54",
":. c #8B8B8B",
">. c gray55",
",. c #ADA580",
"<. c #AEA681",
"1. c #AFA782",
"2. c #B0A882",
"3. c #B1A983",
"4. c #B2A984",
"5. c #B3AA84",
"6. c #B4AB85",
"7. c #B6AE87",
"8. c #B7AF88",
"9. c #B7AF89",
"0. c #B8B089",
"q. c #B9B089",
"w. c #B8B08B",
"e. c #BAB18A",
"r. c #BCB38B",
"t. c #BDB48C",
"y. c #BEB58D",
"u. c #BFB68D",
"i. c #A7A7A7",
"p. c #A9A9A9",
"a. c #AAAAAA",
"s. c #C0B78E",
"d. c #C1B88F",
"f. c #C2B990",
"g. c #C3BA91",
"h. c #C4BB91",
"j. c #C5BC92",
"k. c #C6BD93",
"l. c #C3BB95",
"z. c #C7BE94",
"x. c #C5BD96",
"c. c #C8BF94",
"v. c #C9BF95",
"b. c #CAC096",
"n. c #CBC196",
"m. c #CCC297",
"M. c #CDC398",
"N. c #CDC498",
"B. c #CEC498",
"V. c #CEC599",
"C. c #CFC69A",
"Z. c #D0C79A",
"A. c #D1C79B",
"S. c #D2C89C",
"D. c #D3C99C",
"F. c #D2C99F",
"G. c #D3CA9E",
"H. c #D4CA9D",
"J. c #D5CB9E",
"K. c #D6CC9F",
"L. c #D7CD9F",
"P. c #D2C9A0",
"I. c #D7CDA1",
"U. c #D3CBA4",
"Y. c #D8CEA0",
"T. c #D9CEA1",
"R. c #DAD0A2",
"E. c #DBD1A3",
"W. c #DCD2A3",
"Q. c #DBD2A5",
"!. c #DDD3A4",
"~. c #DED4A5",
"^. c #DFD5A5",
"/. c #E0D6A6",
"(. c #E1D6A7",
"). c #E2D7A7",
"_. c #E3D8A8",
"`. c #E4D9A9",
"'. c #E5DAAA",
"]. c #E6DBAA",
"[. c #E6DCAB",
"{. c #E7DDAC",
"}. c #E8DDAC",
"|. c #E9DEAD",
" X c #EADFAE",
".X c #EBE0AE",
"XX c #ECE1AF",
"oX c #ECE1B0",
"OX c #ECE2B1",
"+X c #EDE2B1",
"@X c #EDE2B2",
"#X c #EDE3B4",
"$X c #EEE3B6",
"%X c #EEE4B6",
"&X c #EEE4B7",
"*X c #EEE4B8",
"=X c #EEE5B8",
"-X c #EEE5B9",
";X c #EFE5BA",
":X c #EFE5BB",
">X c #EFE6BB",
",X c #EFE6BC",
"<X c #EFE6BD",
"1X c #F0E7BE",
"2X c #F0E7BF",
"3X c #F0E7C0",
"4X c #F0E8C1",
"5X c #F0E8C2",
"6X c #F1E8C2",
"7X c #F1E8C3",
"8X c #F1E9C3",
"9X c #F1E9C4",
"0X c #F1E9C5",
"qX c #F1E9C6",
"wX c #F1EAC6",
"eX c #F2EAC6",
"rX c #F2EAC7",
"tX c #F2EAC8",
"yX c #F2EBC9",
"uX c #F2EBCA",
"iX c #F3EBCB",
"pX c #F3ECCB",
"aX c #F3ECCC",
"sX c #F3ECCD",
"dX c #F3EDCE",
"fX c #F4EDCF",
"gX c #F4EDD0",
"hX c #F4EED1",
"jX c #F4EED2",
"kX c #F5EFD4",
"lX c #F5EFD5",
"zX c #F5F0D6",
"xX c #F5F0D7",
"cX c #F6F1DA",
"vX c #F6F1DB",
"bX c #F7F2DC",
"nX c #F7F2DD",
"mX c #F7F3DF",
"MX c #F8F4E2",
"NX c #F9F5E4",
"BX c #F9F6E6",
"VX c #F9F6E7",
"CX c #F9F6E8",
"ZX c #FAF7E9",
"AX c #FAF7EB",
"SX c None",
/* pixels */
"SXSXSXSXSXb.c.k.g.d.d.s.y.y.r.e.e.e.e.e.e.e.e.e.e.e.e.e.e.e.e.e.e.e.e.e.e.e.e.e.e.e.e.e.e.w.w.w.7.7.6.5.*.&.#.+.X.{ ' SXSXSXSXSX",
"SXSXSXV.M.M.b.m.b.m.m.b.c.c.c.k.z.z.k.k.k.k.k.k.k.k.k.k.z.c.k.k.k.k.k.k.k.k.k.k.k.c.k.k.k.j.j.j.d.d.r.w.6.3.&.+. .' ) W Y SXSXSX",
"SXSXV.Z.V.Z.Z.D.L.L.T.T.T.I.L.L.L.D.L.L.L.L.D.I.D.L.D.I.L.D.D.L.D.I.D.L.D.I.D.T.L.D.D.L.D.D.L.D.D.Z.m.c.s.w.5.#.X.' ~ Y G F SXSX",
"SXV.V.Z.D.L.R.^.).].[.}.[.{.{.].].[.'.[.'.].{.].[.].].[.].[.[.[.}.].}.].}.].].].].[.[.[.}.].].]._./.W.L.V.k.r.3.#.{ W H F c g SX",
"SXV.Z.D.T.^.]..X-X8X0X0X0X8X3X1X1X<X<X-X1X>X-X1X<X<X<X-X1X<X-X1X-X<X-X<X1X-X1X-X<X-X1X<X<X<X-X-X$X@X}._.W.D.c.s.1.X.~ G c g a SX",
"b.M.V.L.^.}.-XuXxXbXmXcXxXgXfXsXsXsXpXsXpXsXsXsXpXsXsXsXsXpXsXsXfXpXfXsXuXfXuXfXsXsXsXpXuXaXaXuXrX8X1XXX]./.D.c.e.&._ H z a i r ",
"c.m.Z.T.].-XgXmXBXBXMXMXcXxXgXgXsXsXsXsXsXsXsXsXsXsXsXsXsXsXsXsXsXsXfXsXsXfXfXsXfXsXsXsXsXsXsXsXfXpX8X-X X].W.Z.d.<.{ Y l p r 0 ",
"k.b.D./..XuXMXCXAXBXMXmXgXfXsXsXpXpXsXpXpXpXpXpXpXpXsXpXpXpXsXpXpXpXiXaXuXaXuXpXuXpXsXuXsXpXuXpX0XrX3X1X@X}._.L.b.7.X.W z y 0 0 ",
"g.m.D.].-XxXCXCXBXMXbXkXgXiXuX0X0X0X0X0X0XpXqXqXwXwXwX0XwX0X0X0X0X0X0X0X0X0XwXwXwXwXwXwX0X0X0X0X0X0X3X-X@X}.].T.V.y.#.! c t 0 0 ",
"d.b.I.[.8XbXCXCXMXmXkXfXuX0X8X8X4X8X8X4X4X4X4X4X4X4X4X4X4X4X4X8X8X4X4X4X4X8X4X4X4X4X4X4X4X8X4X4X3X1X<X$XOX{.[.!.D.u.,.~ c t 0 0 ",
"d.m.T.}.0XbXMXMXcXkXfXuX7X1X1X1X<X<X<X<X<X<X<X<X1X<X<X<X1X<X<X<X<X<X1X<X<X<X<X<X<X<X1X<X<X<X<X<X<X-X#X@X}.}.].!.D.k.<._ b t 0 0 ",
"s.c.T.}.0XcXmXmXxXfXuX0X3X-X1X-X-X-X-X-X-X-X-X-X-X-X-X-X-X-X-X-X-X-X-X-X-X-X-X-X-X-X-X-X-X-X-X-X-X#X$X@X X}.].!.L.z.3.' m t 0 0 ",
"y.c.T.}.0XxXcXkXfXuX0X3X1X$XP.L : & & : P P.#X#X#XOX#X#X#X#X#X#X#X#X#X#X#X#X#X#X#X#XP.P : % & : P P.@X}.{.[.(.^.D.b.3.' m t 0 0 ",
"y.c.T.}.8XgXkXgXuX0X3X1X$Xw.<             > 9..XOXOXOXOX.X@X@X.XOXOX.X@X.X@X.X@X.X9.<             < 9..X{.].(.^.L.b.3.{ n t 0 0 ",
"e.z.L.].1XfXgXaXuX3X1X-XP.<                 > D.XXXX.X.XXXXXXXXX.X.XXXXXXXXXXXXXD.<                 > V.{.]./.Q.D.z.3.{ b r 0 0 ",
"e.z.L.[.1XfXgXaXiX3X<X-XL                     H XXXX.X@XXXXXXXXX.X@XXXXXXXXXXXXXG                     F {.].(.!.D.z.3.' b r 0 0 ",
"e.z.D.[.1XfXfXuXwX4X1X-X:                     : XXXXXXXXXXXXXXXXXXXXXXXXXXXXXXXX;                     - [.[.(.!.D.c.6.' n w w w ",
"e.k.I.].1XuXfXiXwX4X<X-X&                     % XXXXXXXXXXXXXXXXXXXXXXXXXXXXXXXX&                     % [.].(.T.D.c.6.' n w 0 0 ",
"e.k.L.].<XpXsXpXwX4X<X-X&           4 Z 5     % XXXXXXXXXXXXXXXXXXXXXXXXXXXXXXXX&           4 A 5     % [.`./.W.P.c.6.' n w 0 0 ",
"e.k.D.{.-XpXfXuXqX4X<X-X:           Z p.:.4   : XXXXXXXXXXXXXXXXXXXXXXXXXXXXXXXX:           S i.-.1   - [.].(.W.D.c.6.' n w 0 0 ",
"e.z.I.].1XsXsXpXqX4X<X-XP           5 :.>.N = / XXXXXXXXXXXXXXXXXXXXXXXXXXXXXXXXH           8 -.D 9 * U [.]./.!.D.z.3.{ n w 0 0 ",
"e.c.D.].<XpXfXuXqX4X<X-XP.>           3 N B ` !.XXXXXXXXXXXXXXXXXXXXXXXXXXXXXXXXZ.>         # 2 9 5 V D.[.]./.Q.D.c.6.' n w 0 0 ",
"e.k.D.{.-XsXsXsXqX4X<X-X#X9.>         o = ` U..XXXXXXXXXXXXXXXXXXXXXXXXXXXXXXXXXXX7.>         O * V x.}.[.'.^.!.D.c.6.' n w 0 0 ",
"e.k.L.].1XpXfXuXqX4X<X*X#XOXD.H : % % : / Q.XXXXXXXXXXXXXXXXXXXXXXXXXXXXXXXXXXXXXXXXD.H ; & & - W T.OX{.[.'.(.Q.D.c.6.' n w 0 0 ",
"e.k.D.}.-XfXsXpX0X8X-X-X#X@X.XXXXXXXXXXXXXXXXXXXXXXXXXXXXXXXXXXXXXXXXXXXXXXXXXXXXXXXXXXXXXXXXXXXXXXX X}.[.].(.T.P.c.3.' n w w 0 ",
"e.k.I.].<XpXsXsX0X8X<X-X#X.XXXXXXXXXXXXXXXXXXXXXXXXXXXXXXXXXXXXXXXXXXX.XXXXXXXXXXXXXXXXXXXXXXXXXXX@X X}.[.[.(.!.D.c.6.{ n w 0 0 ",
"e.k.D.}.1XsXfXiX0X4X<X-X#X@XXXXXXXXXXXXXXXXXXXXXXXXXXXXXD.G : % % : H D.XXXXXXXXXXXXXXXXXXXXXXXXXXXX X}.[.].(.!.D.c.6.' n w 0 0 ",
"e.k.L.].-XsXsXaX0X8X<X-X#XXXXXXXXXXXXXXXXXXXXXXXXXXXXX7.>             > 9.XXXXXXXXXXXXXXXXXXXXXXXXXX X}.[.`.(.!.D.c.6.' n w 0 0 ",
"e.k.D.[.1XpXsXuX0X4X<X-X#XOXXXXXXXXXXXXXXXXXXXXXXXXXD.>                 > D..X.XXXXXXXXXXXXXXXXXXXXX X}.[.`.(.!.D.z.3.{ n w 0 0 ",
"e.k.I.].-XfXfXaXwX4X<X-X@XOXXXXXXXXXXXXXXXXXXXXXXXXXH                     H XXXXXXXXXXXXXXXXXXXXXXXXXX}.[.[.(.T.P.c.6.' n w 0 0 ",
"e.k.D.].1XuXfXuXwX4X1X-X#XOX.X.XXXXXXXXXXXXXXXXXXXXX;                     : XXXXXXXXXXXXXXXXXXXXXXXX X}.[.`.(.!.D.c.6.' n w 0 0 ",
"e.k.T.].-XfXsXpXwX4X<X-X#XOX.X@XXXXXXXXXXXXXXXXXXXXX&                     % XXXXXXXXXXXXXXXXXXXXXXXXXX}.[.].(.!.D.c.6.' n w 0 0 ",
"e.k.L.].-XsXsXpX0X4X<X-X#X.XXXXXXXXXXXXXXXXXXXXXXXXX&           4 S 8 @   % XXXXXXXXXXXXXXXXXXXXXXXX.X}.[.].~.Q.D.c.6.' n w 0 0 ",
"e.k.G.].1XsXsXpX0X8X<X-X#X@XXXXXXXXXXXXXXXXXXXXXXXXX:           S p.:.4 + : XXXXXXXXXXXXXXXXXXXXXXXX.X}.[.].(.!.D.z.6.' n w 0 0 ",
"e.k.L.].<XpXsXsX0X4X<X-X#X@XXXXXXXXXXXXXXXXXXXXXXXXXH           7 :.:.N = ~ XXXXXXXXXXXXXXXXXXXXXXXX.X}.[.]./.W.D.c.6.{ n w 0 0 ",
"e.k.I.[.-XsXsXpXwX4X<X-X#X.XXXXXXXXXXXXXXXXXXXXXXXXXD.>         @ 4 N B ` Q.XXXXXXXXXXXXXXXXXXXXXXXX.X}.[.].(.W.D.c.3.' n w 0 0 ",
"e.k.L.].1XpXsXpXwX4X1X-X#X@X.XXXXXXXXXXXXXXXXXXXXXXXXX7.>         + = ` U.XXXXXXXXXXXXXXXXXXXXXXXXXX.X}.[.].(.!.D.z.3.{ n w 0 0 ",
"e.k.L.].>XsXsXsXwX4X<X-X#X.XXXXXXXXXXXXXXXXXXXXXXXXXXXXXZ.H ; & % : ~ Q.XXXXXXXXXXXXXXXXXXXXXXXXXXXX.X}.].]./.!.P.c.6.' n w 0 0 ",
"e.z.L.'.-XsXsXpX0X4X<X-X#XOXXX.XXXXXXXXXXXXXXXXXXXXXXXXXXXXXXXXX@X.XXXXXXXXXXXXXXXXXXXXXXXXXXXXXXXXX.X}.[.'.^.R.D.c.6.' n w 0 0 ",
"e.h.L.].1XsXsXsXwX4X<X-X@X@XXX@XXXXXXXXXXXXXXXXXXXXXXXXXXXXXXXXXXXXXXXXXXXXXXXXXXXXXXXXXXXXXXXXXXXXX.X}.[.]./.!.D.c.6.' n w 0 0 ",
"e.z.L.'.-XsXsXpXqX4X1X-X#XOXD.G ; & % : H D..X.XXXXXXXXXXXXXXXXXXXXXXXXXXXXXXXXXXXXXD.G : % % : H Z. X}.[.`./.W.D.c.6.' n w w 0 ",
"e.h.I.].<XsXsXuXqX4X-X-X#X9.>             > 9.XXXXXXXXXXXXXXXXXXXXXXXXXXXXXXXXXXXX9.>             > w.}.[.].(.Q.P.c.6.{ v w 0 0 ",
"e.z.D.].<XpXsXsXpX4X<X-XP.>                 > D.XXXXXXXXXXXXXXXXXXXXXXXXXXXXXXXXD.>                 < M.[.].(.!.D.c.6.' n w 0 0 ",
"e.z.I.].-XsXsXsX0X4X<X-XP                     G XXXXXXXXXXXXXXXXXXXXXXXXXXXXXXXXG                     G [.`.(.!.D.c.6.' n w 0 0 ",
"9.z.I.].<XsXsXpX0X4X<X-X:                     : XXXXXXXXXXXXXXXXXXXXXXXXXXXXXXXX:                     - [.`.(.!.D.z.6.' n w 0 0 ",
"e.z.D.].<XpXsXpX0X4X<X-X&                     % XXXXXXXXXXXXXXXXXXXXXXXXXXXXXXXX%                     & [.].(.T.D.z.6.{ n w 0 0 ",
"w.j.D.[.-XuXsXpX0X4X<X-X&           3 S 8 #   % XXXXXXXXXXXXXXXXXXXXXXXXXXXXXXXX%           4 A 5     & [.].(.T.D.c.3.' n w 0 0 ",
"e.d.D.'.-XuXsXpX8X8X<X-X:           A i.-.2 O : XXXXXXXXXXXXXXXXXXXXXXXXXXXXXXXX:           A i.-.1   - [.].(.!.D.x.4.' c w 0 0 ",
"7.g.D.).$X0XsXuX0X3X1X#XP           5 -.=.9 * T @XXXXXXXXXXXXXXXXXXXXXXXXXXXXXXXH           5 -.L 9 * T [.'.^.R.D.k.5._ z w 0 0 ",
"7.d.D./.@X0XuX0X8X3X-X-XP.<           1 9 5 V T.OX.XXXXXXXXXXXXXXXXXXXXXXXXXXX@XD.>         X 1 9 8 N U.[.].^.R.Z.g.*.~ k 0 0 0 ",
"3.t.m.W.}.-X3X8X1X1X#X@X@X9.>           * V x.}..X.X.X.X@X X X}.XX XXX X X X X X}.9.>           * V x.[.]./.^.L.V.y.&.W s 0 0 0 ",
"3.e.z.L.].XX1X-X-X$X$XXX}.}.V.G - % & - P D.{.{.}.}.}.}.}.}.}.}.}.}.}.}.}.}.[.[.}.}.V.G - $ $ - Y P.[.[./.^.R.L.b.e.X.H i 0 0 0 ",
"<.6.d.V.W.[.XX@X@X@X@X}.}.{.{.{.[.[.[.[.[.[.[.[.[.[.[.[.[.[.[.[.}.].].].[.[.[.[.{.].[.[.[.[.[.[.[.[.].(./.R.L.V.d.5.{ n r 0 0 0 ",
"&.<.8.k.D.^.].}.}.}.}.[.}.].].].].`.`.].`.].`.].].].].].].`.`.].].].].].].].].].].].'.'.].].].(.].(.(./.R.T.V.b.e.@.W d 0 0 0 0 ",
"&.&.5.e.c.D.^./.].].].].]././.(.(.(.(.(.(.(.(.(././././.(.(.(.(./././.(./.(.(./.(.(.^.(./.(.(./.^.^.^.R.T.Z.b.y.<.' F i 0 0 0 0 ",
"O.@.@.5.y.k.Z.T.T.W.!.!.!.W.W.Q.!.!.!.!.T.!.!.!.Q.W.!.W.T.!.!.!.!.W.W.Q.W.W.!.W.!.R.!.Q.!.R.!.Q.Q.T.I.D.V.b.y.5. .Y s 0 0 0 0 0 ",
".. ...@.1.9.d.b.V.D.D.L.D.L.D.D.D.D.D.D.D.D.D.D.D.P.D.D.D.P.D.D.D.D.D.D.D.P.D.D.D.D.D.D.D.L.D.D.D.D.V.b.d.e.*. .R l r 0 0 0 0 0 ",
" .' { { X.&.<.7.y.s.k.k.b.k.z.z.x.c.c.c.c.c.x.c.c.c.c.c.c.c.c.c.c.c.z.c.c.c.c.c.z.z.b.z.z.z.z.z.h.h.y.e.5.+. .R l r 0 0 0 0 0 0 ",
"_ ~ ! W ~ _ { X.#.*.5.5.7.3.3.6.6.6.6.6.6.6.6.6.6.6.6.3.6.6.3.6.6.6.6.6.3.6.6.6.3.6.7.3.3.3.6.3.1.*.$...' ! F d r 0 0 0 0 0 0 0 ",
"SX! R H G P P W ! / _ _ ' ' ' { ' ' ' ' ' { ' ' ' ' { ' ' ' { ' ' ' ' ' ' { ' ' ' { ' ' { ' { ' ' ~ R P b s i 0 0 0 0 0 0 0 0 SX",
"SXY H m c z l l c c b n m n b b n v n n n n n n n n n n n n n n n n n n n n n n c n c b c c c c z k s i r 0 0 0 0 0 0 0 0 0 0 SX",
"SXSXm c g a p i t t t t t t r r y w w w w w w w w w w w w w w w w w w w w w w w r r r r r r r e 0 0 0 e 0 0 0 0 0 0 0 0 0 0 SXSX",
"SXSXSXk a i r 0 0 0 0 0 0 0 0 0 0 0 0 0 0 0 0 0 0 0 w 0 0 0 0 0 0 0 0 0 0 0 w 0 0 0 0 0 0 0 0 0 0 0 0 0 0 0 0 0 0 0 0 0 0 SXSXSX",
"SXSXSXSXSXr 0 0 0 0 0 0 0 0 0 0 0 0 0 0 0 0 0 0 0 0 0 0 0 0 0 0 0 0 0 0 0 0 0 0 0 0 0 0 0 0 0 0 0 0 0 0 0 0 0 0 0 0 0 SXSXSXSXSX"
};
