/* XPM */
static const char *four_xpm[] = {
/* columns rows colors chars-per-pixel */
"64 64 221 2",
"   c black",
".  c #010101",
"X  c #020202",
"o  c #13120E",
"O  c #13130E",
"+  c #14130F",
"@  c gray16",
"#  c #423E31",
"$  c #434031",
"%  c #434033",
"&  c #494536",
"*  c #494636",
"=  c #494637",
"-  c #414141",
";  c gray28",
":  c #4C4C4C",
">  c #4E4E4E",
",  c #565656",
"<  c #625E49",
"1  c #635E49",
"2  c #645F4A",
"3  c #65604B",
"4  c #66614B",
"5  c #67624C",
"6  c #68634D",
"7  c #69644E",
"8  c #6A654E",
"9  c #6B6650",
"0  c #6F6A52",
"q  c #726D54",
"w  c #736D55",
"e  c #746E56",
"r  c #756F56",
"t  c #726E5F",
"y  c #726F5F",
"u  c #767057",
"i  c #777259",
"p  c #787359",
"a  c #79745A",
"s  c #7A745B",
"d  c #7B755B",
"f  c #7C765C",
"g  c #7D775D",
"h  c #7E785D",
"j  c #7F795E",
"k  c #736F60",
"l  c #767676",
"z  c gray50",
"x  c #817B5F",
"c  c #827C60",
"v  c #847E62",
"b  c #857F63",
"n  c #857F65",
"m  c #857F66",
"M  c #888265",
"N  c #898366",
"B  c #898367",
"V  c #8A8366",
"C  c #8B8569",
"Z  c #8C8568",
"A  c #8D8668",
"S  c #8E8769",
"D  c #8F886A",
"F  c #8F896A",
"G  c #918B6C",
"H  c #928B6C",
"J  c #938C6D",
"K  c #958E6E",
"L  c #979070",
"P  c #989171",
"I  c #999271",
"U  c #9A9272",
"Y  c #9B9373",
"T  c #9B9473",
"R  c #9D9675",
"E  c #9E9775",
"W  c #A09977",
"Q  c #A19A77",
"!  c #A39B79",
"~  c #A49C79",
"^  c #A69E7B",
"/  c #A79F7C",
"(  c #A8A07C",
")  c #A8A17D",
"_  c #A9A17E",
"`  c #ABA37F",
"'  c gray52",
"]  c #ADA580",
"[  c #AEA681",
"{  c #AFA782",
"}  c #B0A882",
"|  c #B1A983",
" . c #B2A984",
".. c #B3AA84",
"X. c #B4AB85",
"o. c #B6AE87",
"O. c #B7AF88",
"+. c #B7AF89",
"@. c #B8B089",
"#. c #B9B089",
"$. c #B8B08B",
"%. c #BAB18A",
"&. c #BCB38B",
"*. c #BDB48C",
"=. c #BEB58D",
"-. c #BFB68D",
";. c #A7A7A7",
":. c #C0B78E",
">. c #C1B88F",
",. c #C2B990",
"<. c #C3BA91",
"1. c #C4BB91",
"2. c #C5BC92",
"3. c #C6BD93",
"4. c #C3BB95",
"5. c #C7BE94",
"6. c #C5BD96",
"7. c #C6BE97",
"8. c #C8BF94",
"9. c #C9BF95",
"0. c #CAC096",
"q. c #CBC196",
"w. c #CCC297",
"e. c #CDC398",
"r. c #CDC498",
"t. c #CEC498",
"y. c #CEC599",
"u. c #CFC69A",
"i. c #D0C79A",
"p. c #D1C79B",
"a. c #D2C89C",
"s. c #D3C99C",
"d. c #D2C99F",
"f. c #D3CA9E",
"g. c #D4CA9D",
"h. c #D5CB9E",
"j. c #D6CC9F",
"k. c #D7CD9F",
"l. c #D2C9A0",
"z. c #D7CDA1",
"x. c #D8CEA0",
"c. c #D9CEA1",
"v. c #DAD0A2",
"b. c #DBD1A3",
"n. c #DCD2A3",
"m. c #DDD3A4",
"M. c #DED4A5",
"N. c #DFD5A5",
"B. c #E0D6A6",
"V. c #E1D6A7",
"C. c #E2D7A7",
"Z. c #E3D8A8",
"A. c #E4D9A9",
"S. c #E5DAAA",
"D. c #E6DBAA",
"F. c #E6DCAB",
"G. c #E7DDAC",
"H. c #E8DDAC",
"J. c #E9DEAD",
"K. c #EADFAE",
"L. c #EBE0AE",
"P. c #ECE1AF",
"I. c #ECE1B0",
"U. c #ECE2B1",
"Y. c #EDE2B1",
"T. c #EDE2B2",
"R. c #EDE3B4",
"E. c #EEE3B6",
"W. c #EEE4B6",
"Q. c #EEE4B7",
"!. c #EEE4B8",
"~. c #EEE5B8",
"^. c #EEE5B9",
"/. c #EFE5BA",
"(. c #EFE5BB",
"). c #EFE6BB",
"_. c #EFE6BC",
"`. c #EFE6BD",
"'. c #F0E7BE",
"]. c #F0E7BF",
"[. c #F0E7C0",
"{. c #F0E8C1",
"}. c #F0E8C2",
"|. c #F1E8C2",
" X c #F1E8C3",
".X c #F1E9C3",
"XX c #F1E9C4",
"oX c #F1E9C5",
"OX c #F1E9C6",
"+X c #F1EAC6",
"@X c #F2EAC6",
"#X c #F2EAC7",
"$X c #F2EAC8",
"%X c #F2EBC9",
"&X c #F2EBCA",
"*X c #F3EBCB",
"=X c #F3ECCB",
"-X c #F3ECCC",
";X c #F3ECCD",
":X c #F3EDCE",
">X c #F4EDCF",
",X c #F4EDD0",
"<X c #F4EED1",
"1X c #F4EED2",
"2X c #F5EFD4",
"3X c #F5EFD5",
"4X c #F5F0D6",
"5X c #F5F0D7",
"6X c #F6F1DA",
"7X c #F6F1DB",
"8X c #F7F2DC",
"9X c #F7F2DD",
"0X c #F7F3DF",
"qX c #F8F4E2",
"wX c #F9F5E4",
"eX c #F9F6E6",
"rX c #F9F6E7",
"tX c #F9F6E8",
"yX c #FAF7E9",
"uX c #FAF7EB",
"iX c None",
/* pixels */
"iXiXiXiXiX0.8.3.<.>.>.:.=.=.&.%.%.%.%.%.%.%.%.%.%.%.%.%.%.%.%.%.%.%.%.%.%.%.%.%.%.%.%.%.%.%.%.+.+.o.X.| ` ` / ! E U L iXiXiXiXiX",
"iXiXiXy.e.e.0.w.0.w.w.0.8.8.8.3.5.5.3.3.3.3.3.3.3.3.3.3.3.3.3.3.3.3.3.3.3.3.3.3.3.3.3.3.3.1.1.<.<.>.&.%.X.{ ` ! R P J S V iXiXiX",
"iXiXy.i.y.i.i.s.k.k.c.c.c.z.k.k.k.s.k.k.k.k.s.z.s.k.s.z.s.z.k.z.k.k.s.z.s.k.s.c.s.z.k.z.k.s.k.s.s.i.e.5.:.$. ./ W P G V v x iXiX",
"iXy.y.i.s.k.v.N.C.D.F.H.F.G.G.D.D.D.D.F.S.D.G.D.F.D.D.F.D.D.D.F.D.D.G.D.G.D.D.D.D.D.D.F.D.D.D.S.S.C.v.k.y.3.=. .^ P S v h s r iX",
"iXy.i.s.c.N.D.L.^..XoXoXoX.X[.'.'.'.^.).^.'.^.'.`.`.^.'.`.^.`.^.^.`.'.^.'.^.'.^.^.'.`.^.`.`.`.^.E.U.H.D.b.s.8.=.{ E G v d w 0 iX",
"0.e.y.k.N.H.^.&X5X8X0X6X5X,X>X;X;X;X;X;X;X;X;X;X;X=X;X;X=X>X=X;X>X=X;X;X&X>X&X>X;X;X=X;X=X&X&X&X&X.X^.P.G.N.s.8.%.` J v p q 8 4 ",
"8.w.i.c.D.^.,X0XeXeXqXqX6X5X,X,X;X;X;X;X;X;X;X;X;X;X;X;X;X;X;X;X;X;X>X;X;X>X>X;X>X;X;X;X;X;X;X;X&X&X.X^.H.G.b.i.>.{ T V i 9 2 < ",
"3.0.s.B.L.&XqXtXuXeXqX0X,X>X;X;X=X=X;X=X=X;X=X;X=X=X;X=X;X=X;X=X=X;X-X&X=X*X&X;X&X=X;X&X;X=X&X=X&XoX[.'.T.H.Z.c.8.o.W Z p 8 < < ",
"<.w.s.D.^.5XtXtXeXqX8X2X,X*X&XoXoXoXoXoXoX+XoX+X+X+X+XOX+X+X+XoXoXoXoXoXoXoX+X+X+X+X+X+XoXoXoXoXoX.X.X^.T.H.D.b.y.=./ F s 5 < < ",
">.0.z.F..X8XtXtXqX0X2X>X&XoX.X.X{..X.X{.{.{.{.{.{.{.{.{.{.{.{.{..X{.{.{.{..X{.{.{.{.{.{.{..X{.{.[.'.'.R.T.H.G.b.s.:.] J s 5 < < ",
">.w.c.H.oX8XqXqX6X2X>X&X X'.'.'.`.`.`.`.'.`.`.`.'.`.`.`.'.`.'.'.`.`.'.`.`.`.`.`.`.`.'.`.`.`.`.`.`.^.R.T.H.H.G.b.s.5.{ J f 5 < < ",
":.8.c.H.oX6X0X0X5X>X&XoX[.^.'.^.^.^.^.^.^.^.^.^.^.^.^.^.^.^.^.^.^.^.^.^.^.^.^.^.^.^.^.^.^.^.^.^.^.R.E.T.H.H.D.N.s.8. .L h 5 < < ",
"=.8.c.H.oX5X6X2X>X&XoX[.'.E.l.m % + + % n l.R.R.R.R.R.R.U.R.R.R.R.R.R.R.R.R.R.R.U.R.l.M % O + % m l.T.P.G.G.C.b.s.8. .P h 5 < < ",
"=.8.c.H..X,X2X,X&XoX[.'.E.$.=             = +.L.L.U.U.L.T.U.T.L.L.U.L.T.L.T.L.T.U.$.&             = o.H.G.D.C.b.k.3.o.P f 5 < < ",
"%.5.k.D.'.>X,X-X&X[.'.^.l.=                 & s.P.P.L.L.P.P.P.P.U.P.P.P.P.P.P.P.s.&                 & y.G.D.B.N.s.5. .P f 4 < < ",
"%.5.k.F.'.>X,X-X*X[.`.^.m                     M P.P.L.T.P.P.P.P.L.P.P.P.P.P.P.P.c                     x G.D.C.b.s.5. .L f 5 < < ",
"%.5.s.F.'.>X>X&X+X{.'.^.%                     % P.P.P.P.P.P.P.P.P.P.P.P.P.P.P.P.%                     # S.S.V.M.l.5. .P f 5 < < ",
"%.3.z.D.'.&X>X*X+X{.`.^.+                     O P.P.P.P.P.P.P.P.P.P.P.P.P.P.P.P.O                     + K.S.V.M.l.5.X.P f 5 < < ",
"%.3.k.D.`.=X;X=X+X{.`.^.+           ; l : X   O P.P.P.P.P.P.P.P.P.P.P.P.P.P.P.P.O           ; l >     + S.S.M.M.s.5. .P f 2 < < ",
"%.3.s.G.^.=X>X&XOX{.`.^.%           l ;.' -   % P.P.P.P.P.P.P.P.P.P.P.P.P.P.P.P.%           l ;.' -   # S.S.V.b.s.5. .P f 5 < < ",
"%.5.z.D.'.;X;X=XOX{.`.^.M           > ' C , @ C P.P.P.P.P.P.P.P.P.P.P.P.P.P.P.P.v           > ' m , @ B F.S.V.M.s.5.X.P f 5 < < ",
"%.8.s.D.`.=X>X&XOX{.`.^.l.&           - , > k l.P.P.P.P.P.P.P.P.P.P.P.P.P.P.P.P.i.&           - , > k l.F.S.M.b.s.8. .P f 2 < < ",
"%.3.s.G.^.;X;X;XOX{.`.^.R.+.&       o   @ k 7.!.P.P.P.P.P.P.P.P.P.P.P.P.P.P.P.P.P.o.&           @ k 7.G.F.S.M.M.k.5. .P f 2 < < ",
"%.3.k.D.'.=X>X&XOX{.`.!.R.U.s.v % + + @ C z.K.R.P.P.P.P.P.P.P.P.P.P.P.P.P.P.P.P.P.L.i.M % + + $ C b.E.F.F.S.M.M.s.5. .P f 2 < < ",
"%.3.s.H.^.>X;X=XoX.X^.^.R.T.L.P.L.P.P.P.P.P.P.P.P.P.P.P.P.P.P.P.P.P.P.P.P.P.P.P.P.P.P.P.P.P.P.P.P.P.T.H.G.S.C.b.s.8. .P f 4 < < ",
"%.3.z.D.`.=X;X;XoX.X`.^.R.L.P.P.P.P.P.P.P.P.P.P.P.P.P.P.P.P.P.P.P.P.P.P.P.P.P.P.P.P.P.P.P.P.P.P.P.T.H.H.D.G.C.b.s.5.X.P f 5 < < ",
"%.3.s.H.'.;X>X*XoX{.`.^.R.T.P.P.P.P.P.P.P.P.P.P.P.P.P.P.P.P.P.P.P.P.P.P.P.P.P.P.P.P.P.P.P.P.P.P.P.P.H.H.G.C.C.b.z.5. .P f 5 < < ",
"%.3.k.D.^.;X;X-XoX.X`.^.R.P.P.P.P.P.P.P.P.P.P.P.P.P.P.P.P.P.P.P.P.P.P.P.P.P.P.P.P.P.P.P.P.P.P.P.P.P.H.G.G.G.C.b.s.5. .P f 2 < < ",
"%.3.s.F.'.=X;X&XoX{.`.^.R.U.P.P.P.P.P.P.P.P.P.P.P.P.P.P.P.P.P.P.P.P.P.P.P.P.P.P.P.P.P.P.P.P.P.P.P.P.P.H.D.S.N.b.s.5.X.P f 2 < < ",
"%.3.z.D.^.>X>X-X+X{.`.^.T.U.P.P.P.P.P.P.P.P.P.P.P.P.P.P.P.P.P.P.P.P.P.P.P.P.P.P.P.P.P.P.P.P.P.P.P.P.H.H.G.S.C.b.s.8. .P f 2 < < ",
"%.3.s.D.'.&X>X&X+X{.'.^.R.U.L.L.P.P.P.P.P.P.P.P.P.P.P.P.P.P.P.P.P.P.P.P.P.P.P.P.P.P.P.P.P.P.P.P.P.P.P.H.D.D.S.b.k.5. .P f 2 < < ",
"%.3.c.D.^.>X;X=X+X{.`.^.R.U.L.T.P.P.P.P.P.P.P.P.P.P.P.P.P.P.P.P.P.P.P.P.P.P.P.P.P.P.P.P.P.P.P.P.P.P.P.H.G.D.B.b.s.5. .L f 5 < < ",
"%.5.k.D.'.;X;X=XoX{.`.^.T.T.P.P.P.P.P.P.P.P.P.P.P.P.P.P.P.P.P.P.P.P.P.P.P.P.P.P.P.P.P.P.P.P.P.P.P.P.L.H.D.S.N.b.s.8. .P f 5 < < ",
"%.5.s.D.^.;X;X=XoX.X`.^.R.P.P.P.P.P.P.P.P.P.P.P.P.P.P.P.P.P.P.P.P.P.P.P.P.P.P.P.P.P.P.P.P.P.P.P.P.P.L.H.G.D.C.b.s.5.X.P f 2 < < ",
"%.3.k.D.'.=X;X;XoX{.`.^.R.U.P.P.P.P.P.P.P.P.P.P.P.P.P.P.P.P.P.P.P.P.P.P.P.P.P.P.P.P.P.P.P.P.P.P.P.P.L.H.D.D.B.n.z.5. .P f 2 < < ",
"%.3.z.F.^.;X;X=X+X{.`.^.R.L.P.P.P.P.P.P.P.P.P.P.P.P.P.P.P.P.P.P.P.P.P.P.P.P.P.P.P.P.P.P.P.P.P.P.P.P.L.H.G.D.B.n.s.5. .P f 2 < < ",
"%.3.k.S.^.;X;X=X+X{.'.^.R.T.L.P.P.P.P.P.P.P.P.P.P.P.P.P.P.P.P.P.P.P.P.P.P.P.P.P.P.P.P.P.P.P.P.P.P.P.L.H.F.D.B.n.s.5. .P f 2 < < ",
"%.3.k.D.'.;X;X;X+X{.`.^.R.L.P.P.P.P.P.P.P.P.P.P.P.P.P.P.P.P.P.P.P.P.P.P.P.P.P.P.P.P.P.P.P.P.P.P.P.P.L.H.D.D.S.b.s.5.X.P f 5 < < ",
"%.3.s.G.^.;X;X=XoX{.`.^.R.T.T.L.P.P.P.P.P.P.P.P.P.P.P.P.P.P.P.P.P.P.P.P.P.P.P.P.P.P.P.P.P.P.P.P.P.P.L.H.F.S.N.b.s.8.X.P f 5 < < ",
"%.3.z.D.'.;X;X;X+X{.`.^.R.P.L.T.P.P.P.P.P.P.P.P.P.P.P.P.P.P.P.P.P.P.P.P.P.P.P.P.P.P.P.P.P.P.P.P.P.P.L.H.F.D.B.b.s.8. .P f 2 < < ",
"%.3.s.F.`.;X;X=XOX{.`.^.R.L.s.c # + + $ v s.L.P.P.P.P.P.P.P.P.P.P.P.P.P.P.P.P.P.P.P.i.v % O O % v i.H.H.G.G.C.b.z.5.X.P f 2 < < ",
"%.3.k.D.`.=X;X=X=X{.`.^.R.$.&             & +.P.P.P.P.P.P.P.P.P.P.P.P.P.P.P.P.P.P.+.&             & $.H.D.G.C.b.s.5. .P f 2 < < ",
"%.3.s.D.^.;X;X;XoX{.`.^.s.=                 & s.P.P.P.P.P.P.P.P.P.P.P.P.P.P.P.P.s.&                 & e.G.C.C.b.s.8. .P f 2 < < ",
"%.3.z.F.`.;X;X=XoX{.`.^.M                     c P.P.P.P.P.P.P.P.P.P.P.P.P.P.P.P.v                     c G.S.C.b.s.8.X.P f 5 < < ",
"$.5.z.D.`.=X;X;XoX{.`.^.$                     % P.P.P.P.P.P.P.P.P.P.P.P.P.P.P.P.%                     # G.G.M.b.s.5.X.P f 5 < < ",
"$.3.s.D.`.=X;X=XoX{.`.^.+                     O P.P.P.P.P.P.P.P.P.P.P.P.P.P.P.P.O                     + G.C.V.c.s.8. .P f 2 < < ",
"O.1.s.G.^.&X;X=XoX{.'.^.+           ; l >     O P.P.P.P.P.P.P.P.P.P.P.P.P.P.P.P.O           ; l >     + G.D.C.b.z.3. .P f 2 < < ",
"$.1.s.D.^.&X=X=XoX.X`.^.%           l ;.' -   % P.P.P.P.P.P.P.P.P.P.P.P.P.P.P.P.%           l ;.' -   # G.C.C.b.s.3. .L s 2 < < ",
"O.>.g.Z.E.#X>XoXoX.X^.^.M           > ' C , @ C R.I.I.I.P.P.P.P.P.P.P.P.P.P.P.P.v           > ' m , @ C F.S.N.v.s.2.| J s < < < ",
"O.:.i.B.T.[.oX*X.X'.`.R.l.&         X - , > k l.I.I.T.H.P.T.P.P.P.P.P.P.P.P.P.L.s.&           - , > k l.F.S.N.v.p.<.` G u 3 < < ",
"X.&.t.n.H.'.[.'.'.'.E.E.T.+.&   X   X X @ k 4.R.P.H.H.T.K.K.I.H.L.L.L.L.L.L.H.T.H.+.&           @ k -.E.S.N.N.x.y.=.` Z q < < < ",
"| $.8.k.D.K.'.'.^.E.T.P.H.H.y.c & + + @ C l.G.G.H.H.H.H.H.H.H.G.H.H.H.H.H.H.G.G.H.H.e.c # O O # B l.G.S.S.N.v.s.0.$.E M 8 < < < ",
"` X.:.i.n.D.K.T.T.T.K.H.H.F.H.G.G.G.S.G.F.G.S.G.F.F.G.D.G.D.G.G.F.D.G.D.G.D.G.S.G.D.G.D.G.G.S.S.F.F.S.A.N.M.z.y.>.| L h 4 < < < ",
"` { O.8.g.B.D.H.H.H.H.G.H.D.D.D.S.G.S.S.S.S.S.S.D.D.D.D.S.D.Z.G.D.D.S.S.D.D.S.S.D.D.S.S.D.D.S.S.S.V.M.N.b.z.p.0.%.^ F q < < < < ",
"/ ` { &.8.s.b.C.D.D.G.D.B.S.B.C.C.N.N.C.N.N.S.N.B.B.C.C.N.C.C.C.C.C.N.C.S.B.C.C.C.C.N.C.C.C.C.C.M.M.M.z.z.u.0.=.{ P x 8 < < < < ",
"! ! / ..&.8.a.c.v.n.b.N.N.b.b.b.N.b.b.b.N.b.b.m.n.n.b.b.b.b.b.b.b.b.b.b.b.b.b.b.b.b.b.b.b.b.b.b.b.b.b.l.u.5.=. .R V q < < < < < ",
"E R E ^ { %.>.0.y.s.s.z.s.s.s.k.s.s.z.s.s.s.s.s.s.s.s.s.s.s.z.s.s.s.s.s.k.s.s.s.s.s.k.s.s.s.s.s.s.s.y.0.>.%.{ T Z i 4 < < < < < ",
"T P P P E ( { O.=.>.1.5.0.8.5.5.5.0.5.5.5.0.5.0.8.8.8.5.5.5.5.5.5.0.5.8.5.5.5.0.5.5.5.5.5.0.3.3.2.<.=.%.| ( L Z i 4 < < < < < < ",
"L J F F J J P W / ] {  .X. . .X. . . . . .X.X.X.X. . .X. .X. .X. . .o. . .o. . . .X. . . . .o.| { ` ) W L F x w 4 < < < < < < < ",
"iXF M M c M V Z F G J L P P P P P P P L L L L L P P P P P P P L P P L L L P P P P P P L P P L L J G F c h w 8 < < < < < < < < iX",
"iXV v h s p i i s s f f h h f f f f f f f f f f f f f f f f f f f f f f f f f f s f f f d s s s s u q 8 4 < < < < < < < < < < iX",
"iXiXh s r 0 9 8 8 5 6 5 4 4 4 4 2 5 2 5 2 2 5 2 5 2 2 5 2 2 5 2 5 2 2 5 5 2 < 5 4 4 4 4 4 4 4 4 4 < < < < < < < < < < < < < iXiX",
"iXiXiXu 0 8 2 < < < < < < < < < < < < < 2 2 < < < < < < < < < < < < < < < < < < < < < < < < < < < < < < < < < < < < < < < iXiXiX",
"iXiXiXiXiX4 < < < < < < < < < < < < < < < < < < < < < < < < < < < < < < < < < < < < < < < < < < < < < < < < < < < < < iXiXiXiXiX"
};
