/* XPM */
static const char *six_xpm[] = {
/* columns rows colors chars-per-pixel */
"64 64 255 2",
"   c black",
".  c #010101",
"X  c #020202",
"o  c #13120E",
"O  c #13130E",
"+  c #14130F",
"@  c #141310",
"#  c gray16",
"$  c #403C2F",
"%  c #413E30",
"&  c #423E31",
"*  c #423F31",
"=  c #434031",
"-  c #434032",
";  c #434033",
":  c #434034",
">  c #444236",
",  c #444237",
"<  c #474435",
"1  c #484435",
"2  c #494536",
"3  c #494636",
"4  c #494637",
"5  c #494638",
"6  c #4A4739",
"7  c #4A473A",
"8  c #4A473B",
"9  c #4A483B",
"0  c #414141",
"q  c gray28",
"w  c #4C4C4C",
"e  c #4E4E4E",
"r  c #565656",
"t  c #625E49",
"y  c #635E49",
"u  c #645F4A",
"i  c #65604B",
"p  c #66614B",
"a  c #67624C",
"s  c #68634D",
"d  c #69644E",
"f  c #6A654E",
"g  c #6B6650",
"h  c #6F6A52",
"j  c #726D54",
"k  c #736D55",
"l  c #746E56",
"z  c #756F56",
"x  c #706D5E",
"c  c #716E5E",
"v  c #726F5F",
"b  c #767057",
"n  c #777259",
"m  c #787359",
"M  c #79745A",
"N  c #7A745B",
"B  c #7B755B",
"V  c #7C765C",
"C  c #7D775D",
"Z  c #7E785D",
"A  c #7E785E",
"S  c #7F795E",
"D  c #736F60",
"F  c #767676",
"G  c gray50",
"H  c #817B5F",
"J  c #827C60",
"K  c #847E62",
"L  c #857F63",
"P  c #847F64",
"I  c #857F64",
"U  c #857F65",
"Y  c #878166",
"T  c #888265",
"R  c #898366",
"E  c #898367",
"W  c #8A8366",
"Q  c #868169",
"!  c #87826C",
"~  c #87826D",
"^  c #8B8569",
"/  c #8C8568",
"(  c #8D8668",
")  c #8E8769",
"_  c #8F886A",
"`  c #8F896A",
"'  c #918B6C",
"]  c #928B6C",
"[  c #938C6D",
"{  c #958E6E",
"}  c #979070",
"|  c #989171",
" . c #999271",
".. c #9A9272",
"X. c #9B9373",
"o. c #9B9473",
"O. c #9D9675",
"+. c #9E9775",
"@. c #A09977",
"#. c #A19A77",
"$. c #A39B79",
"%. c #A49C79",
"&. c #A69E7B",
"*. c #A79F7C",
"=. c #A8A07C",
"-. c #A8A17D",
";. c #A9A17E",
":. c #ABA37F",
">. c gray52",
",. c #ADA580",
"<. c #AEA681",
"1. c #AFA782",
"2. c #B0A882",
"3. c #B1A983",
"4. c #B2A984",
"5. c #B3AA84",
"6. c #B4AB85",
"7. c #B6AE87",
"8. c #B7AF88",
"9. c #B7AF89",
"0. c #B8B089",
"q. c #B9B089",
"w. c #BAB18A",
"e. c #BCB38B",
"r. c #B9B18F",
"t. c #BDB48C",
"y. c #BEB58D",
"u. c #BFB68D",
"i. c #BAB393",
"p. c #BEB691",
"a. c #BAB395",
"s. c #A7A7A7",
"d. c #C0B78E",
"f. c #C1B88F",
"g. c #C2B990",
"h. c #C3BA91",
"j. c #C1B893",
"k. c #C4BB91",
"l. c #C5BC92",
"z. c #C6BD93",
"x. c #C7BE94",
"c. c #C5BD96",
"v. c #C6BE97",
"b. c #C8BF94",
"n. c #C9BF95",
"m. c #CAC096",
"M. c #CBC196",
"N. c #CCC297",
"B. c #CBC398",
"V. c #CCC398",
"C. c #CDC398",
"Z. c #CDC39A",
"A. c #CDC498",
"S. c #CEC498",
"D. c #CEC599",
"F. c #CEC49A",
"G. c #CFC69A",
"H. c #D0C79A",
"J. c #D1C79B",
"K. c #D2C89C",
"L. c #D3C99C",
"P. c #D2C99D",
"I. c #D3CA9E",
"U. c #D4CA9D",
"Y. c #D5CB9E",
"T. c #D6CC9F",
"R. c #D7CD9F",
"E. c #D2C9A0",
"W. c #D7CDA1",
"Q. c #D3CBA4",
"!. c #D8CEA0",
"~. c #D9CEA1",
"^. c #D5CDA9",
"/. c #D5CDAA",
"(. c #D5CEAB",
"). c #D6CEAD",
"_. c #DAD0A2",
"`. c #DBD1A3",
"'. c #DCD2A3",
"]. c #DDD3A4",
"[. c #DED4A5",
"{. c #DFD5A5",
"}. c #E0D6A6",
"|. c #E1D6A7",
" X c #E2D7A7",
".X c #E3D8A8",
"XX c #E4D9A9",
"oX c #E5DAAA",
"OX c #E6DBAA",
"+X c #E6DCAB",
"@X c #E7DDAC",
"#X c #E8DDAC",
"$X c #E9DEAD",
"%X c #EADFAE",
"&X c #EBE0AE",
"*X c #ECE1AF",
"=X c #ECE1B0",
"-X c #ECE2B1",
";X c #EDE2B1",
":X c #EDE2B2",
">X c #EDE3B4",
",X c #EEE3B6",
"<X c #EEE4B6",
"1X c #EEE4B7",
"2X c #EEE4B8",
"3X c #EEE5B8",
"4X c #EEE5B9",
"5X c #EFE5BA",
"6X c #EFE5BB",
"7X c #EFE6BB",
"8X c #EFE6BC",
"9X c #EFE6BD",
"0X c #F0E7BE",
"qX c #F0E7BF",
"wX c #F0E7C0",
"eX c #F0E8C1",
"rX c #F0E8C2",
"tX c #F1E8C2",
"yX c #F1E8C3",
"uX c #F1E9C3",
"iX c #F1E9C4",
"pX c #F1E9C5",
"aX c #F1E9C6",
"sX c #F1EAC6",
"dX c #F2EAC6",
"fX c #F2EAC7",
"gX c #F2EAC8",
"hX c #F2EBC9",
"jX c #F2EBCA",
"kX c #F3EBCB",
"lX c #F3ECCB",
"zX c #F3ECCC",
"xX c #F3ECCD",
"cX c #F3EDCE",
"vX c #F4EDCF",
"bX c #F4EDD0",
"nX c #F4EED1",
"mX c #F4EED2",
"MX c #F5EFD4",
"NX c #F5EFD5",
"BX c #F5F0D6",
"VX c #F5F0D7",
"CX c #F6F1DA",
"ZX c #F6F1DB",
"AX c #F7F2DC",
"SX c #F7F2DD",
"DX c #F7F3DF",
"FX c #F8F4E2",
"GX c #F9F5E4",
"HX c #F9F6E6",
"JX c #F9F6E7",
"KX c #F9F6E8",
"LX c #FAF7E9",
"PX c #FAF7EB",
"IX c None",
/* pixels */
"IXIXIXIXIXM.b.z.h.h.f.d.y.y.e.w.w.w.w.w.w.w.w.w.w.w.w.w.w.w.w.w.w.w.w.w.w.w.w.w.w.w.w.w.0.0.w.0.9.7.7.2.1.-.*.$.+.X.} IXIXIXIXIX",
"IXIXIXD.D.N.M.M.M.M.M.M.b.b.x.x.z.z.z.z.z.z.z.z.z.z.z.z.x.x.z.z.z.z.z.z.z.z.z.z.z.z.z.z.z.z.k.z.h.u.w.w.6.1.=.%.+.| [ ) E IXIXIX",
"IXIXD.H.D.H.H.L.L.T.~.~.~.~.T.T.W.T.L.W.T.T.T.T.T.T.T.T.W.L.L.W.T.T.T.T.T.T.T.T.T.T.Y.W.T.T.T.L.L.H.D.x.y.w.4.=.+.| ' E K H IXIX",
"IXD.D.H.L.T._.{..XOX#X#X@X@X+X+XOXOX+X@XOXOXOXOXOXOXOXOXOXOX@X+XOXOXOXOXOXOXOXOXOX+X+XoXOX.XOX.X.X}.'.T.D.z.y.4.*.| ) I Z M z IX",
"IXD.H.L.~.{.OX&X5XrXpXgXpXrXrX0X8X8X8X8X8X8X8X8X8X8X8X8X8X8X8X8X8X8X8X8X8X8X8X8X8X8X8X8X8X8X8X5X1X=X#XOX'.L.b.y.2.@.[ K M k h IX",
"M.V.D.W.{.#X5XlXVXAXAXAXVXbXvXzXzXzXzXzXzXzXzXzXzXzXzXzXzXzXzXzXzXzXzXzXzXzXzXzXzXzXzXzXzXzXgXzXgXpX5X*X+X{.L.x.w.=.{ K M j f p ",
"b.M.H.~.OX5XbXDXGXKXGXAXCXVXbXvXbXzXzXzXbXzXzXzXzXzXbXzXzXzXzXzXzXbXzXbXzXzXzXzXzXbXbXzXzXbXzXzXzXlXrX5X&XOX].H.d.1.| E n g u t ",
"z.M.L.}.#XlXDXLXPXGXFXAXMXbXzXzXzXzXzXzXzXzXlXlXxXgXzXxXzXxXzXxXxXzXgXxXxXxXxXzXgXxXzXgXxXlXgXlXgXpXrX0X=X#X X~.b.7.@.^ M f t t ",
"h.M.L..X5XVXKXKXLXFXAXNXzXgXgXgXpXpXpXpXlXpXpXpXsXsXsXsXsXpXpXpXaXaXaXaXsXsXsXsXsXsXsXsXpXpXpXpXpXpXwX2X=X#X+X~.D.y.=.' M s t t ",
"h.M.W.+XrXAXKXKXFXAXBXbXzXaX).~ , o @ , ! /.rXrXrXqXrXrXrXrXrXrXrXrXqXrXrXrXqXrXrXqX(.! , o @ , ~ /.8X2X=X#X+X].L.d.=.[ B a t t ",
"f.M.~.@XpXAXGXGXAXBXzXgXpXa.9 . . . . . . 7 i.8XqX7XqX5XqX5X8X8X5XqXqX7XqX5X7XqX5Xi.5 . . . . . . 7 r.=X%X#X+X].L.x.1.{ V a t t ",
"y.M._.#XpXCXAXAXBXbXlXaX/.7 . . . . . . . . 7 Q.4X4X3X5X5X5X5X5X4X4X4X5X3X5X5X5XQ.9 . . . . . . . . 7 J.%X@X+X[.L.b.4.} V a t t ",
"y.z.~.@XpXCXCXMXbXgXpXwXQ . . . . . . . . . . Y -X-X3X-X>X>X>X>X-X3X1X-X1X-X1X-XY . . . . . . . . . . J @X+X X[.L.b.6.| Z a t t ",
"y.M.~.@XrXbXMXbXzXpXwX8X* . . . . . . . . . . - -X-X-X-X=X=X=X=X-X&X=X-X=X=X=X=X- . . . . . . . . . . * @X.X X].T.b.4.| V a t t ",
"e.m.T.+XwXvXbXzXgXpX8X5Xo . . . . . . . . . . O *X*X&X&X*X*X*X*X&X-X&X*X*X*X*X*Xo . . . . . . . . . . o @XOX X].L.b.4.| B a t t ",
"w.z.T.+X0XzXvXvXpXrX8X5X+ . . . . . q F e . . O *X&X-X&X*X*X*X*X&X&X*X*X*X*X*X*Xo . . . . . q F w . . o +XOX X].L.b.4.| V a t t ",
"w.z.T.OX5XzXzXzXsXrXqX4X- . . . . . F s.>.0 . * *X*X*X*X*X*X*X*X*X*X*X*X*X*X*X*X* . . . . . F s.>.0 . * @X+X[.].L.x.4.| V p t t ",
"w.z.T.OX8XzXzXzXsXqX7X4XY . . . . . w >.G r # ^ *X*X*X*X*X*X*X*X*X*X*X*X*X*X*X*XK . . . . . w >.G r # E @X.X X`.L.x.6.| V a t t ",
"w.z.T.OX8XzXzXzXsXrXqX1XL.5 . . . . . 0 r e v W.*X*X*X*X*X*X*X*X*X*X*X*X*X*X*X*XH.4 . . . . . 0 r e v L.+XOX X].E.b.6.| V a t t ",
"w.z.T.+X8XzXzXzXsXrX7X5X>X9.< . . . . . # D x.*X*X*X*X*X*X*X*X*X*X*X*X*X*X*X*X*X*X7.4 . . . . . # D x.@X@X.X X`.L.b.4.| V u t t ",
"w.x.W.OX8XzXbXzXsXrXqX5X>X=XH.K - o o - ^ W.*X*X*X*X*X*X*X*X*X*X*X*X*X*X*X*X*X*X*X*XH.K - o o - ^ W.&X#X+XOX X`.L.x.4.| V u t t ",
"w.x.L.OX8XzXzXzXpXrX5X5X>X=X=X*X*X*X*X*X=X=X*X*X*X*X*X*X*X*X*X*X*X*X*X*X*X*X*X*X*X*X*X*X*X*X*X*X#X-X&X#XOXOX X`.L.x.6.| V u t t ",
"w.z.L.@X8XzXzXzXpXrX8X5X>X=X*X*X*X*X*X*X*X*X*X*X*X*X*X*X*X*X*X*X*X*X*X*X*X*X*X*X*X*X*X*X*X*X*X*X=X*X*X#XOX.X X`.L.b.6.| V u t t ",
"w.z.W.@X8XzXzXzXpXrX8X5X>X=X*X*X*X*X*X*X*X*X*X*X*X*X*X*X*X*X*X*X*X*X*X*X*X*X*X*X*X*X*X*X*X*X*X*X=X=X&X#X@XOX X`.L.b.4.| V a t t ",
"w.z.T.OX8XzXzXxXaXrX5X5X>X=X*X*X*X*X*X*X*X*X*X*X*X*X*X*X*X*X*X*X*X*X*X*X*X*X*X*X*X*X*X*X*X*X*X*X=X=X%X#X+X+X X].L.b.4.| V a t t ",
"w.z.T.OX8XzXbXzXaXrX8X4X>X=X*X*X*X*X*X*X*X*X*X*X*X*X*X*X*X*X*X*X*X*X*X*X*X*X*X*X*X*X*X*X*X*X*X*X*X=X%X#X+XXX X].E.b.6.| V u t t ",
"w.z.T.OX8XzXzXgXaXrX8X4X>X=XH.J - o O - K H.*X*X*X*X*X*X*X*X*X*X*X*X*X*X*X*X*X*X*X*XH.J = o o * K H.%X#X+XXX|.~.L.b.6.| V u t t ",
"w.z.T.OX8XzXbXxXsXrX8X4X>X9.4 . . . . . . 4 7.*X*X*X*X*X*X*X*X*X*X*X*X*X*X*X*X*X*X9.4 . . . . . . 4 9.#X+XXX X].L.b.6.| V u t t ",
"w.z.T.OX8XzXzXxXsXrX4X4XE.5 . . . . . . . . 4 H.*X*X*X*X*X*X*X*X*X*X*X*X*X*X*X*XH.4 . . . . . . . . 4 N.+X+X|.].L.x.4.| V u t t ",
"w.z.T.OX8XzXzXxXsXrXqX4XY . . . . . . . . . . J *X*X*X*X*X*X*X*X*X*X*X*X*X*X*X*XJ . . . . . . . . . . H +XXX|.~.L.x.6.| V a t t ",
"w.z.T.OX8XzXzXxXsXqXqX4X- . . . . . . . . . . - *X*X*X*X*X*X*X*X*X*X*X*X*X*X*X*X- . . . . . . . . . . * +XXX X].L.b.6.| V a t t ",
"w.z.T.OX8XzXzXzXsXrX7X4Xo . . . . . . . . . . o *X*X*X*X*X*X*X*X*X*X*X*X*X*X*X*Xo . . . . . . . . . . o +X+X X].L.b.4.| V u t t ",
"w.z.T.+X9XzXzXzXaXrX8X5Xo . . . . . q F e . . o *X*X*X*X*X*X*X*X*X*X*X*X*X*X*X*Xo . . . . . q F e o X @ +XXX|.].E.b.4.| V u u t ",
"w.z.T.oX9XzXzXzXaXrX8X5X- . . . . . F s.>.0 . - *X*X*X*X*X*X*X*X*X*X*X*X*X*X*X*X* . . . . . F s.>.# X * +X+X|.~.L.b.6.| V u t t ",
"w.z.W.oX9XzXcXzXaXrX8X5XI . . . . . e >.G r # ^ *X*X*X*X*X*X*X*X*X*X*X*X*X*X*X*XK . . . . . w >.G r # E +XXX X].L.b.6.| V u t t ",
"w.z.Y.oX9XzXzXzXaXrX8X>XQ.4 . . . . . 0 r e D W.*X*X*X*X*X*X*X*X*X*X*X*X*X*X*X*XH.4 . . . . . 0 r e v Q.+X+X[.`.L.b.6.| V u t t ",
"w.z.T.+X8XzXzXzXaXqXqX3X-X0.4 . . . . . # D x.=X*X*X*X*X*X*X*X*X*X*X*X*X*X*X*X*X*X7.4 . . . . . # v x.@X+XOX X].L.x.6.| V u u t ",
"w.z.T.+X8XzXzXzXsXrXqX4X1X=XL.J * o o * ^ ~.-X%X*X*X*X*X*X*X*X*X*X*X*X*X*X*X*X*X*X*XL.J - O o = ^ ~.*X#X+XOX X~.L.b.4.| V a t t ",
"w.z.T.+X8XzXzXlXsXrX5X4X-X=X*X*X*X*X*X*X*X*X*X*X*X*X*X*X*X*X*X*X*X*X*X*X*X*X*X*X*X*X*X*X&X*X*X*X*X*X#X#X+X+X X].E.b.4.| V u t t ",
"w.z.T.XXqXzXzXjXsXqXqX4X1X=X*X*X*X*X*X*X*X*X*X*X*X*X*X*X*X*X*X*X*X*X*X*X*X*X*X*X*X*X*X*X*X*X*X*X*X*X*X#X+X.X[.].L.b.4.X.V u t t ",
"w.z.T.XX7XvXzXlXsXqXqX4X-X-X*X*X*X*X*X*X*X*X*X*X*X*X*X*X*X*X*X*X*X*X*X*X*X*X*X*X*X*X*X*X*X*X*X*X=X=X=X#X+X+X X].L.b.6.| V u t t ",
"w.z.T.+X7XlXzXlXsXrX7X4X3X-X=X=X*X*X*X*X*X*X*X*X*X*X*X*X*X*X*X*X*X*X*X*X*X*X*X*X*X*X*X*X*X*X*X*X=X=X#X#X+X X X].L.b.6.| V u t t ",
"w.z.T.XXqXzXzXzXaXrX8X4X-X-X&X=X*X*X*X*X&X&X*X*X*X*X*X*X*X*X*X*X*X*X*X*X*X*X*X*X*X*X*X*X*X*X*X*X*X*X%X#X+X+X|.~.E.b.6.| V a t t ",
"w.z.T.+XqXzXzXzXaXrX8X4X-X-XH.J - o O = K L.*X*X*X*X*X*X*X*X*X*X*X*X*X*X*X*X*X*X*X=XH.K - o o * K H.%X#X+XXX|.].L.b.6.| V u t t ",
"0.x.W.@X5XzXzXzXaXrX8X5X=X9.4 . . . . . . 4 7.*X*X*X*X*X*X*X*X*X*X*X*X*X*X*X*X*X*X9.4 . . . . . . 4 7.#X+X+X|.].L.x.6.| V u u t ",
"w.k.T..X7XlXzXlXaXqX8X5XQ.4 . . . . . . . . 4 H.*X*X*X*X*X*X*X*X*X*X*X*X*X*X*X*XH.4 . . . . . . . . 4 N.+XXX|.~.L.b.4.| V u t t ",
"0.z.W..X8XgXzXlXaXrX8X5XI . . . . . . . . . . K *X*X*X*X*X*X*X*X*X*X*X*X*X*X*X*XK . . . . . . . . . . H +X+X X~.L.b.4.| V u t t ",
"0.h.L..X5XlXzXlXaXrX8X5X* . . . . . . . . . . * *X*X*X*X*X*X*X*X*X*X*X*X*X*X*X*X= . . . . . . . . . . & +XXX X].L.x.4.| N u t t ",
"7.h.L..X1XgXzXlXrXrX5X5XO . . . . . . . . . . o &X*X*X*X=X*X*X*X*X*X*X*X*X*X*X=Xo . . . . . . . . . . o +X.X}.`.L.z.1.{ M t t t ",
"7.f.L.}.=XpXlXpXrX0X5X1XO . . . . . q F e . . @ *X*X*X*X=X=X*X*X*X*X*X*X*X*X*X=Xo . . . . . q F w . . o +XOX{._.H.h.1.' z t t t ",
"6.t.M._.#X5XpXrXqX5X5X1X* . . . . . F s.>.# o : &X&X&X&X=X%X%X%X*X%X*X%X%X%X%X%X* . . . . . F s.>.0 . $ OX}.{.~.D.y.=.) j t t t ",
"2.w.x.W.OX*X5X5X5X1X=X*XK . . . . . w >.G r # ^ #X#X#X#X#X#X#X+X#X#X#X#X#X#X#X#XH . . . . . w >.G r # Y  X{._.L.M.9.$.K f t t t ",
"1.2.f.D._.@X&X=X=X=X*X#XD.4 . . . . . 0 r e v L.+X+X+X+X+X+X+X+X#XOXOXOX+X+X+X+XV., . . X X X 8 r e v D.{.`.T.D.h.4.| V p t t t ",
"=.2.0.x.L.{.+X@X#X#X#XOXOX4., . . . . . # D p.OXOXOXOXOX XOXXX+XOXOXOXOXOXOXOXXXOX4., . X X X X # v p.{.`.W.H.M.w.%.) k t t t t ",
"=.=.4.t.M.L.]. XOXOXOXOX.X Xb.V % o o % P V.}. X}.}. X}. X X X X X}.}. X}. X}.}.}.}.b.Z # @ o % J B.{._.W.H.M.y.1.| H f t t t t ",
"%.%.=.4.t.x.J.W.`.].].{.{.].'.'._.].`.`.].`.].].`.].`.].`.].~.].].]._.].'.'.].'.'.'.'.'.].].~.].`._.W.L.D.M.y.2.+.W k t t t t t ",
"+.+.@.%.2.8.f.M.D.L.T.L.W.T.L.L.L.E.L.L.L.L.L.L.L.L.L.L.L.E.L.L.J.L.L.L.L.L.E.L.L.L.L.L.L.E.L.L.L.H.D.M.h.w.1.+.) n p t t t t t ",
"o.| | | @.=.1.8.t.f.k.x.x.x.x.x.x.x.M.x.x.M.x.z.b.b.b.x.b.b.b.b.b.b.x.x.b.b.b.b.x.x.b.b.b.b.z.x.z.h.y.w.2.%.} E n p t t t t t t ",
"| { ) _ ' { | @.*.,.1.4.6.4.4.6.4.4.4.4.4.4.4.7.6.4.4.6.6.6.4.4.4.6.4.6.4.6.6.6.4.6.6.4.6.6.6.4.2.:.-.@.| _ H k p t t t t t t t ",
"IX( E Y K K E ^ _ [ [ } | | | | } X.} X.| | | | | | | | | | | X.| | | | | | | | | | | | | | | { { ] ) K Z k f t t t t t t t t IX",
"IXE K H B M n n M B B Z Z Z V V B V V B V V V V V V V V V V V V V V V V V V V V V V V B V V B M M b j f p t t t t t t t t t t IX",
"IXIXZ M k h g f f a a a p p p p a u u a u a u u u u u a u u a u u a u u u u a u u a u a u p p u t u t t t t t t t t t t t t IXIX",
"IXIXIXz h f i t t t t t t t t t t t t t u u t t t t u t t t t t u t t t t t t t t t t t t t t t t t t t t t t t t t t t t IXIXIX",
"IXIXIXIXIXp t t t t t t t t t t t t t t t t t t t t t t t t t t t t t t t t t t t t t t t t t t t t t t t t t t t t t IXIXIXIXIX"
};
