/* XPM */
static const char *three_xpm[] = {
/* columns rows colors chars-per-pixel */
"64 64 227 2",
"   c black",
".  c #010101",
"X  c #020202",
"o  c #040404",
"O  c #090909",
"+  c #13120E",
"@  c #13130E",
"#  c #14130F",
"$  c gray16",
"%  c #423E31",
"&  c #434031",
"*  c #434033",
"=  c #494536",
"-  c #494636",
";  c #494637",
":  c #414141",
">  c #434343",
",  c gray28",
"<  c #484848",
"1  c #4C4C4C",
"2  c #4E4E4E",
"3  c #515151",
"4  c #565656",
"5  c #625E49",
"6  c #635E49",
"7  c #645F4A",
"8  c #65604B",
"9  c #66614B",
"0  c #67624C",
"q  c #68634D",
"w  c #69644E",
"e  c #6A654E",
"r  c #6B6650",
"t  c #6F6A52",
"y  c #726D54",
"u  c #736D55",
"i  c #746E56",
"p  c #756F56",
"a  c #726F5F",
"s  c #767057",
"d  c #777259",
"f  c #787359",
"g  c #79745A",
"h  c #7A745B",
"j  c #7B755B",
"k  c #7C765C",
"l  c #7D775D",
"z  c #7E785D",
"x  c #7F795E",
"c  c #736F60",
"v  c #767676",
"b  c #777777",
"n  c #797979",
"m  c gray50",
"M  c #817B5F",
"N  c #827C60",
"B  c #847E62",
"V  c #857F63",
"C  c #857F65",
"Z  c #888265",
"A  c #898366",
"S  c #898367",
"D  c #8A8366",
"F  c #8B8569",
"G  c #8C8568",
"H  c #8D8668",
"J  c #8E8769",
"K  c #8F886A",
"L  c #8F896A",
"P  c #918B6C",
"I  c #928B6C",
"U  c #938C6D",
"Y  c #958E6E",
"T  c #979070",
"R  c #989171",
"E  c #999271",
"W  c #9A9272",
"Q  c #9B9373",
"!  c #9B9473",
"~  c #9D9675",
"^  c #9E9775",
"/  c #A09977",
"(  c #A19A77",
")  c #A39B79",
"_  c #A49C79",
"`  c #A69E7B",
"'  c #A79F7C",
"]  c #A8A07C",
"[  c #A8A17D",
"{  c #A9A17E",
"}  c #ABA37F",
"|  c gray52",
" . c #868686",
".. c #ADA580",
"X. c #AEA681",
"o. c #AFA782",
"O. c #B0A882",
"+. c #B1A983",
"@. c #B2A984",
"#. c #B3AA84",
"$. c #B4AB85",
"%. c #B6AE87",
"&. c #B7AF88",
"*. c #B7AF89",
"=. c #B8B089",
"-. c #B9B089",
";. c #BAB18A",
":. c #BCB38B",
">. c #BDB48C",
",. c #BEB58D",
"<. c #BFB68D",
"1. c #A7A7A7",
"2. c #C0B78E",
"3. c #C1B88F",
"4. c #C2B990",
"5. c #C3BA91",
"6. c #C4BB91",
"7. c #C5BC92",
"8. c #C6BD93",
"9. c #C7BE94",
"0. c #C5BD96",
"q. c #C6BE97",
"w. c #C8BF94",
"e. c #C9BF95",
"r. c #CAC096",
"t. c #CBC196",
"y. c #CCC297",
"u. c #CDC398",
"i. c #CDC498",
"p. c #CEC498",
"a. c #CEC599",
"s. c #CFC69A",
"d. c #D0C79A",
"f. c #D1C79B",
"g. c #D2C89C",
"h. c #D3C99C",
"j. c #D2C99F",
"k. c #D3CA9E",
"l. c #D4CA9D",
"z. c #D5CB9E",
"x. c #D6CC9F",
"c. c #D7CD9F",
"v. c #D2C9A0",
"b. c #D7CDA1",
"n. c #D8CEA0",
"m. c #D9CEA1",
"M. c #DAD0A2",
"N. c #DBD1A3",
"B. c #DCD2A3",
"V. c #DDD3A4",
"C. c #DED4A5",
"Z. c #DFD5A5",
"A. c #E0D6A6",
"S. c #E1D6A7",
"D. c #E2D7A7",
"F. c #E3D8A8",
"G. c #E4D9A9",
"H. c #E5DAAA",
"J. c #E6DBAA",
"K. c #E6DCAB",
"L. c #E7DDAC",
"P. c #E8DDAC",
"I. c #E9DEAD",
"U. c #EADFAE",
"Y. c #EBE0AE",
"T. c #ECE1AF",
"R. c #ECE1B0",
"E. c #ECE2B1",
"W. c #EDE2B1",
"Q. c #EDE2B2",
"!. c #EDE3B3",
"~. c #EDE3B4",
"^. c #EDE3B5",
"/. c #EEE3B6",
"(. c #EEE4B6",
"). c #EEE4B7",
"_. c #EEE4B8",
"`. c #EEE5B8",
"'. c #EEE5B9",
"]. c #EFE5BA",
"[. c #EFE5BB",
"{. c #EFE6BB",
"}. c #EFE6BC",
"|. c #EFE6BD",
" X c #F0E7BE",
".X c #F0E7BF",
"XX c #F0E7C0",
"oX c #F0E8C1",
"OX c #F0E8C2",
"+X c #F1E8C2",
"@X c #F1E8C3",
"#X c #F1E9C3",
"$X c #F1E9C4",
"%X c #F1E9C5",
"&X c #F1E9C6",
"*X c #F1EAC6",
"=X c #F2EAC6",
"-X c #F2EAC7",
";X c #F2EAC8",
":X c #F2EBC9",
">X c #F2EBCA",
",X c #F3EBCB",
"<X c #F3ECCB",
"1X c #F3ECCC",
"2X c #F3ECCD",
"3X c #F3EDCE",
"4X c #F4EDCF",
"5X c #F4EDD0",
"6X c #F4EED1",
"7X c #F4EED2",
"8X c #F5EFD4",
"9X c #F5EFD5",
"0X c #F5F0D6",
"qX c #F5F0D7",
"wX c #F6F1DA",
"eX c #F6F1DB",
"rX c #F7F2DC",
"tX c #F7F2DD",
"yX c #F7F3DF",
"uX c #F8F4E2",
"iX c #F9F5E4",
"pX c #F9F6E6",
"aX c #F9F6E7",
"sX c #F9F6E8",
"dX c #FAF7E9",
"fX c #FAF7EB",
"gX c None",
/* pixels */
"gXgXgXgXgXr.w.8.5.3.3.2.,.,.:.;.;.;.;.;.;.;.;.;.;.;.;.;.;.;.;.;.;.;.;.;.;.;.;.;.;.;.;.;.;.;.=.=.&.%.#.#.o.' ' ) ^ Q T gXgXgXgXgX",
"gXgXgXa.u.u.r.y.r.y.y.r.w.w.w.8.8.8.8.8.8.8.8.7.8.8.8.8.8.9.8.8.8.8.8.8.8.8.8.8.8.8.8.8.8.7.8.8.5.3.,.=.$.o.{ _ ! Q U J S gXgXgX",
"gXgXa.d.a.d.d.h.c.c.m.m.m.b.c.c.c.z.z.c.c.c.c.c.c.b.c.h.c.h.c.c.c.c.h.b.c.c.h.b.c.h.c.c.c.c.h.h.h.d.y.9.2.;.+.' / T K S B M gXgX",
"gXa.a.d.h.c.M.Z.D.J.K.P.K.L.L.J.J.J.K.K.F.K.J.J.J.J.J.K.J.J.J.K.J.J.L.J.J.J.J.J.J.J.J.K.J.F.J.F.F.S.M.c.a.8.>.#.` Q K B z g p gX",
"gXa.d.h.m.Z.J.Y.'.#X%X%X%X#XXX X X X'. X'.|.|.|.|.'.'.|.|.|.'. X'.|.|.|.|.|.'.|.|.|.'. X|.|.|.'.^.Q.P.J.N.h.w.,.o./ P B g u t gX",
"r.u.a.c.Z.P.'.>XqXrXyXwXqX5X4X2X2X2X2X2X2X<X2X2X2X2X2X2X2X<X2X2X4X<X2X2X,X2X2X2X2X2X2X2X<X<X>X>X>X%X|.T.J.Z.h.w.;.] Y B g y e 9 ",
"w.y.d.m.J.'.5XyXpXpXuXuXwXqX5X5X2X2X2X2X2X2X2X2X2X2X2X2X2X2X2X2X2X2X2X2X2X2X2X2X2X2X2X2X2X2X2X2X<X<X#X'.Y.J.V.d.2.o.Q S d r 7 5 ",
"8.r.h.A.Y.>XuXsXfXpXuXyX5X4X2X2X<X<X2X<X<X2X<X<X>X,X2X2X<X<X2X<X<X<X>X2X2X>X<X<X>X2X2X,X>X<X>X<X>X%X#X'.Q.P.A.m.w.%./ F g e 5 5 ",
"5.y.h.F.'.8XpXsXpXuXrX8X5X,X>X%X%X*X*X*X*X*X*X*X*X*X*X*X*X*X%X%X%X%X%X*X*X*X*X*X*X*X*X*X%X%X%X%X%X#X|.'.Q.P.J.m.a.>.' K g q 5 5 ",
"3.r.m.J.#XyXsXpXuXyX8X4X>X%X#X#XoXoXoXoXoXoXoXoXoXoXoXoXoXoXoXoX#X#XoXoXoXoXoXoXoXoXoXoXXX#XoXoXXX X|./.R.L.K.V.h.3...I g 0 5 5 ",
"3.y.m.L.%XyXpXuXwX8X4X>X@X X X X X X X X X|.|.|.|.|.|.|. X|.|.|.|.|. X|. X X X X|.|.|.|.|.|.|.|.|.'.'.Q.P.P.J.V.h.8.O.Y k 0 5 5 ",
"2.r.m.P.%XwXyXyXqX4X>X%XXX'. X'.'.'.^.'.'.'.'.'.'.'.'.'.'.'.'.'.'.'.'.'.'.'.^.'.'.'.'.'.'.'.'.'.'.'./.Q.U.P.J.Z.h.w.#.T k 0 5 5 ",
",.w.m.P.%XwXwX8X5X>X#X#X X_././.^.!.^.^.^.!.^.!.^.^.^.!./.Q./.^.E.^.^.!.^.!.^.!.^.E.v.C & # + & C h.R.Y.L.K.S.Z.h.9.#.T z 0 5 5 ",
">.w.m.L.#X5X5X5X,X%X|.|./.Q.Q.R.E.!.E.Y.Y.Q.Y.Q.Y.R.R.R.Y.Q.Y.R.R.R.Y.Q.Y.Q.Y.Q.R.=.= . . . . . . = &.P.L.J.S.V.b.9.#.T k 0 5 5 ",
":.9.c.K. X4X5X4X>X#X X'.Q.Q.Y.T.T.T.T.T.T.T.T.T.T.T.Y.T.T.T.T.T.Y.T.T.T.T.T.T.T.d.= . . . . . . . . ; a.L.J.A.V.h.9.#.Q k 0 5 5 ",
";.8.c.K. X2X4X>X>XXX|.'.^.Q.T.T.T.T.T.T.T.T.T.T.T.T.T.T.T.T.T.T.Q.Y.T.T.T.T.T.T.B . . . . . . . . . . N L.J.S.V.h.9.#.T k 0 5 5 ",
";.8.b.J.|.<X4X<X%XoX X'.^.R.T.T.T.T.T.T.T.T.T.T.T.T.T.T.T.T.T.T.T.T.T.T.T.T.T.T.% . . . . . . . . . . % L.F.S.N.h.9.#.T k 0 5 5 ",
";.8.h.J.|.2X2X>X*XoX|.'.^.E.T.Y.T.T.T.T.T.T.T.T.T.T.T.T.T.T.T.T.T.T.T.T.T.T.T.T.+ . . . . . . . . . . + L.K.S.V.h.9.#.T k 0 5 5 ",
";.8.c.J.|.<X2X2X*XoX|.'.^.E.R.E.T.T.T.T.T.T.T.T.T.T.T.T.T.T.T.T.T.T.T.T.T.T.T.T.@ . . . . . < b 1 . . + J.F.S.N.h.9.#.T k 8 5 5 ",
";.8.c.J.'.2X2X2X*XoX|.'.E.R.R.Y.T.T.T.T.T.T.T.T.T.T.T.T.T.T.T.T.T.T.T.T.T.T.T.T.& . . . . . n 1.| : . % L.J.S.V.b.9.#.Q k 8 5 5 ",
";.8.h.J. X2X2X<X*XoX X'.!.Q.T.T.T.T.T.T.T.T.T.T.T.T.T.T.T.T.T.T.T.T.T.T.T.T.T.T.B . . . . . 3 | m 4 $ S K.J.S.N.h.9.#.T k 8 5 5 ",
";.8.b.J.|.<X2X<X*XoX|.'.!.T.T.T.T.T.T.T.T.T.T.T.T.T.T.T.T.T.T.T.T.T.T.T.T.T.T.T.d.= . . . . O : 4 1 c v.J.J.S.V.h.9.#.Q k 8 5 5 ",
";.8.c.J.'.2X2X2X*XoX X'.^.Y.T.T.T.T.T.T.T.T.T.T.T.T.T.T.T.T.T.T.T.T.T.T.T.T.T.T.T.&.= . . . . o $ c 9.L.L.K.Z.N.h.r.#.T k 8 5 5 ",
";.8.c.K. X2X2X<X%XoX|.'.!.Q.T.T.T.T.T.T.T.T.T.T.T.T.T.T.T.T.T.T.T.T.T.T.T.T.T.T.T.T.d.B & + + & J b.U.L.J.F.S.V.h.9.#.T k 8 5 5 ",
";.8.c.J.'.4X2X<X%X#X'.'.!.Q.Y.T.T.T.T.T.T.T.T.T.T.T.T.T.T.T.T.T.T.T.T.T.T.T.T.T.T.T.T.T.T.T.T.T.T.Y.Y.P.L.J.S.N.h.r.#.T l 8 5 5 ",
";.8.c.J.|.<X2X2X%X#X|.'.^.Y.T.T.T.T.T.T.T.T.T.T.T.T.T.T.T.T.T.T.T.T.T.T.T.T.T.T.T.T.T.T.T.T.T.T.T.Q.Y.P.L.J.S.V.h.9.$.W k 8 5 5 ",
";.8.h.L. X2X4X,X%XoX|.'.!.Q.T.T.T.T.T.T.T.T.T.T.T.T.T.T.d.B & + + % B d.T.T.T.T.T.T.T.T.T.T.T.T.T.T.Y.L.F.K.S.N.h.9.#.T k 8 5 5 ",
";.8.b.J.'.2X2X>X%X#X|.'.^.T.T.T.T.T.T.T.T.T.T.T.T.T.Y.=.= . . . . . . = &.T.T.T.T.T.T.T.T.T.T.T.T.T.R.L.L.F.S.V.z.9.#.T k 8 5 5 ",
";.8.c.J.|.>X2X2X*XoX|.'.^.Y.T.T.T.T.T.T.T.T.T.T.T.T.h.- . . . . . . . . = d.T.T.T.T.T.T.T.T.T.T.T.T.Y.P.L.F.F.N.h.9.$.E k 8 5 5 ",
";.8.c.J.|.2X4X,X*XoX|.'.^.R.T.T.T.T.T.T.T.T.T.T.T.T.B . . . . . . . . . . B T.T.T.T.T.T.T.T.T.T.T.T.Y.P.L.F.Z.V.v.9.#.T k 8 5 5 ",
";.8.h.J.'.<X2X>X*XoX X'.^.R.Y.T.T.T.T.T.T.T.T.T.T.T.& . . . . . . . . . . & T.T.T.T.T.T.T.T.T.T.T.T.Y.P.L.F.F.B.c.9.#.T k 8 5 5 ",
";.8.b.J. X2X2X2X*XoX|.'.!.R.Q.Y.T.T.T.T.T.T.T.T.T.T.@ . . . . . . . . . . + T.T.T.T.T.T.T.T.T.T.T.T.Y.P.L.J.Z.N.h.9.$.T k 8 5 5 ",
";.8.c.K.|.2X2X<X%X X|.'.^.Y.T.T.T.T.T.T.T.T.T.T.T.T.+ . . . . . , n 3 O . + T.T.T.T.T.T.T.T.T.T.T.T.Y.P.K.F.S.V.h.9.#.T k 8 5 5 ",
";.8.c.K.|.2X2X<X*X#X|.'.^.Q.T.T.T.T.T.T.T.T.T.T.T.Y.& . . . . . n 1.| : o & T.T.T.T.T.T.T.T.T.T.T.T.Y.P.J.J.S.N.h.9.#.T k 0 5 5 ",
";.8.c.F.'.2X2X2X*XoX|.'.!.Q.T.T.T.T.T.T.T.T.T.T.T.T.B . . . . . 3 | | 4 $ F T.T.T.T.T.T.T.T.T.T.T.T.Y.P.K.J.A.V.h.9.#.Q k 8 5 5 ",
";.8.c.K. X2X2X<X*XoX|.'.^.Y.T.T.T.T.T.T.T.T.T.T.T.T.d.= . . . . O : 4 1 c b.T.T.T.T.T.T.T.T.T.T.T.T.Y.P.L.J.S.M.b.9.#.T k 8 5 5 ",
";.8.h.K. X2X2X<X*XoX X'.^.Y.T.T.T.T.T.T.T.T.T.T.T.T.T.&.= . . . . o $ c 9.Q.Y.T.T.T.T.T.T.T.T.T.T.T.Y.P.K.J.A.V.h.9.#.Q k 8 5 5 ",
";.8.c.J.'.2X2X<X*XoX|.'.^.R.T.T.T.T.T.T.T.T.T.T.T.T.T.T.d.B % @ + & F b.Q.Y.T.T.T.T.T.T.T.T.T.T.T.T.Y.P.K.J.F.M.h.9.#.T k 8 5 5 ",
";.8.c.J.|.<X2X<X%XoX|.'./.Y.T.T.T.T.T.T.T.T.T.T.T.T.T.T.T.T.T.T.Y.T.T.T.T.T.T.T.T.T.T.T.T.T.T.T.T.T.Y.P.K.F.S.V.h.r.#.T k 8 5 5 ",
";.9.h.J. X2X2X<X*XoX|.'.Q.Q.T.Y.T.T.T.T.T.T.T.T.T.T.T.T.T.T.T.T.T.T.T.T.T.T.T.T.T.T.T.T.T.T.T.T.T.T.Y.P.K.J.S.N.h.9.#.T k 8 5 5 ",
";.8.b.J.|.<X2X<X%XoX|.'.^.R.d.B & + + & B d.T.T.T.T.T.T.T.T.T.T.T.T.T.T.T.T.T.T.T.T.T.T.T.T.T.T.T.T.Y.P.L.J.S.N.h.r.$.T l 8 5 5 ",
";.8.h.J.|.2X2X>X>XoX|.'.^.=.= . . . . . . = &.T.T.T.T.T.T.T.T.T.T.T.T.T.T.T.T.T.T.T.T.T.T.T.T.T.T.T.Y.P.K.K.S.V.h.9.$.T l 8 5 5 ",
";.8.c.J.'.2X2X2X%XoX|.'.h.; . . . . . . . . = d.T.T.T.T.T.T.T.T.T.T.T.T.T.T.T.T.T.T.T.T.T.T.T.T.T.T.Q.P.K.F.S.N.h.9.#.T k 8 5 5 ",
";.8.c.J. X2X2X2X%XoX|.'.Z . . . . . . . . . . B T.T.T.T.T.T.T.T.T.T.T.T.T.T.T.T.T.T.T.T.T.T.T.T.T.T.P.L.K.K.Z.Z.v.r.#.T k 8 5 5 ",
"*.9.b.J.|.<X2X<X%XoX|.'.% . . . . . . . . . . % T.T.T.T.T.T.T.T.T.T.T.T.T.T.T.T.T.T.T.T.T.T.T.T.T.T.Y.P.L.F.S.N.h.9.#.Q k 8 5 5 ",
"*.9.h.J.'.4X2X<X%XoX|.'.@ . . . . . . . . . . + T.T.T.T.T.T.T.T.T.T.T.T.T.T.T.T.T.T.T.T.T.T.T.T.T.T.Y.P.L.F.S.N.h.9.#.T k 8 5 5 ",
";.7.h.K.'.>X2X<X%XoX|.'.# . . . . . , n 3 O . + T.T.T.T.T.T.T.T.T.T.T.T.T.T.T.T.T.T.T.T.T.T.T.T.T.T.Y.P.L.J.Z.N.z.9.#.T g 8 5 5 ",
"*.7.h.J.'.>X2X>X%X#X|.'.% . . . . . b 1.| : o & T.T.T.T.T.T.T.T.T.T.T.T.T.T.T.T.T.T.T.T.T.T.T.T.T.T.Y.P.L.F.S.N.h.9.#.T g 8 5 5 ",
"&.7.d.J.^.>X4X>X%X X X^.Z . . . . . < | | 4 $ F R.Q.Y.T.T.T.T.T.T.T.T.T.T.T.T.T.T.T.T.T.Y.Q.Y.R.T.T.P.P.K.F.A.M.h.8.+.Y g 6 6 6 ",
"%.2.d.A.Q.XX>X%X#X X'./.v.= . . . . . : 4 1 c b.R.Y.T.T.T.Q.T.T.T.T.T.T.T.T.T.T.T.T.T.T.T.Y.R.R.T.Y.Y.P.K.J.Z.M.d.5.} P s 6 6 6 ",
"$.>.u.N.P. X%XXX X X_./.Q.%.= . . . . . $ c 9.Y.Y.Y.Y.Y.P.T.Q.P.Y.Y.Y.Y.Y.Y.P.Q.Y.Y.Y.Y.Y.Y.R.Y.U.P.P.L.J.A.Z.c.a.,.{ G t 5 6 5 ",
"#.;.w.h.G.Q.'.'.'./.Q.T.Y.P.a.M % + + % S h.L.L.P.P.P.P.P.P.P.K.P.P.P.P.P.P.L.L.P.P.P.P.P.P.L.L.P.L.K.J.D.Z.M.h.r.;./ Z e 5 5 5 ",
"..$.3.a.V.J.T.Q.Q.Q.Q.P.P.K.L.L.K.K.K.K.K.K.L.L.K.K.K.K.K.K.K.K.K.J.J.L.L.K.K.J.K.K.K.K.L.L.K.L.L.L.J.S.Z.N.c.a.5.+.T l 9 5 5 5 ",
"' O.*.8.h.V.J.P.P.P.P.K.K.J.J.J.K.K.H.H.H.H.H.L.J.J.J.J.J.J.J.J.J.J.J.F.J.J.J.J.J.J.F.J.H.H.F.F.S.J.S.Z.N.m.h.r.;.` K u 8 5 5 5 ",
"' ' #.>.w.h.V.S.J.J.J.G.G.A.A.A.Z.S.S.S.Z.Z.Z.Z.Z.S.S.A.Z.S.S.S.S.S.S.S.D.A.S.S.A.F.S.S.Z.F.F.Z.A.Z.Z.M.b.d.r.,.o.T x e 5 5 5 5 ",
"_ _ ' #.,.w.g.m.m.N.A.V.V.V.N.V.Z.N.N.N.Z.N.B.B.V.M.V.N.V.N.V.N.N.V.N.N.N.N.V.M.V.M.V.N.N.N.N.N.N.M.m.h.a.r.,.+.^ A y 5 5 5 5 5 ",
"^ ! ^ ` o.=.3.w.a.h.h.h.c.h.h.h.h.h.z.h.z.h.z.h.z.h.z.h.h.h.h.v.h.h.h.c.h.h.h.c.h.z.h.h.h.z.h.z.h.h.a.r.3.;.} ~ F d 8 6 5 5 5 5 ",
"! Q T Q ^ { o.%.,.3.8.9.w.w.w.r.9.r.9.9.9.r.7.r.9.9.9.9.r.9.r.9.9.r.9.9.9.9.9.9.9.9.r.9.9.9.7.9.3.8.>.;.+.] E F d 9 5 5 5 5 5 5 ",
"T U K K U Y Q / ' { +.+.#.#.#.#.$.$.#.#.#.$.#.$.#.#.#.#.#.#.#.#.#.#.#.#.#.$.#.#.#.#.#.#.#.$.$.#.+.} ] ^ T K M u 9 5 5 5 5 5 5 5 ",
"gXK Z Z B B Z J K U Y T Q T T Q T T T T T T T T T T Q T T T T T T Q T T T T T T Q T T T T T T T Y U F Z z u e 5 8 6 5 5 5 5 5 gX",
"gXS B z k d d d d k k k k k k k k k k k k k k k l k k k k k k k k k k k z k k k k k k k z g g d f s y e 9 5 5 5 5 5 5 5 5 5 5 gX",
"gXgXM g u t r e 0 0 0 0 0 0 0 0 8 0 8 8 8 8 8 8 0 8 8 8 8 8 8 8 8 8 8 8 0 8 8 8 8 8 8 8 9 9 9 8 8 6 6 6 5 5 5 5 5 5 5 5 5 5 gXgX",
"gXgXgXp t e 0 5 5 5 5 5 5 5 5 5 5 5 5 5 5 5 5 5 5 5 5 5 5 5 5 5 5 5 5 5 5 5 5 5 5 5 5 5 5 5 5 5 5 5 6 6 5 5 5 5 5 5 5 5 5 gXgXgX",
"gXgXgXgXgX0 5 5 5 5 5 5 5 5 5 5 5 5 5 5 5 5 5 5 5 5 5 5 5 5 5 5 5 5 5 5 5 5 5 5 5 5 5 5 5 5 5 5 5 5 5 5 5 5 5 5 5 5 5 gXgXgXgXgX"
};
