/* XPM */
static const char * two_xpm[] = {
"64 64 147 2",
"  	c None",
". 	c #CAC096",
"+ 	c #C8BF94",
"@ 	c #C6BD93",
"# 	c #C3BA91",
"$ 	c #C1B88F",
"% 	c #C0B78E",
"& 	c #BEB58D",
"* 	c #BCB38B",
"= 	c #BAB18A",
"- 	c #B7AF89",
"; 	c #B6AE87",
"> 	c #B3AA84",
", 	c #B1A983",
"' 	c #AFA782",
") 	c #A8A17D",
"! 	c #A79F7C",
"~ 	c #A39B79",
"{ 	c #9E9775",
"] 	c #9B9373",
"^ 	c #979070",
"/ 	c #CEC599",
"( 	c #CDC398",
"_ 	c #CCC297",
": 	c #C4BB91",
"< 	c #C7BE94",
"[ 	c #BDB48C",
"} 	c #989171",
"| 	c #938C6D",
"1 	c #8E8769",
"2 	c #888265",
"3 	c #D0C79A",
"4 	c #D3C99C",
"5 	c #D7CD9F",
"6 	c #D9CEA1",
"7 	c #D7CDA1",
"8 	c #918B6C",
"9 	c #847E62",
"0 	c #817B5F",
"a 	c #DAD0A2",
"b 	c #DFD5A5",
"c 	c #E2D7A7",
"d 	c #E6DBAA",
"e 	c #E6DCAB",
"f 	c #E8DDAC",
"g 	c #E7DDAC",
"h 	c #E3D8A8",
"i 	c #E1D6A7",
"j 	c #A49C79",
"k 	c #857F65",
"l 	c #7F795E",
"m 	c #7A745B",
"n 	c #756F56",
"o 	c #EBE0AE",
"p 	c #EEE5B9",
"q 	c #F1E9C3",
"r 	c #F1E9C5",
"s 	c #F0E7C0",
"t 	c #F0E7BE",
"u 	c #EFE6BD",
"v 	c #EDE3B5",
"w 	c #ECE1B0",
"x 	c #A09977",
"y 	c #928B6C",
"z 	c #736D55",
"A 	c #6F6A52",
"B 	c #F2EBCA",
"C 	c #F5F0D7",
"D 	c #F7F2DC",
"E 	c #F7F3DF",
"F 	c #F6F1DA",
"G 	c #F4EDD0",
"H 	c #F4EDCF",
"I 	c #F3ECCD",
"J 	c #F3ECCB",
"K 	c #F3EBCB",
"L 	c #958E6E",
"M 	c #787359",
"N 	c #726D54",
"O 	c #6A654E",
"P 	c #66614B",
"Q 	c #F9F6E6",
"R 	c #F8F4E2",
"S 	c #DCD2A3",
"T 	c #777259",
"U 	c #6B6650",
"V 	c #645F4A",
"W 	c #625E49",
"X 	c #E0D6A6",
"Y 	c #F9F6E8",
"Z 	c #FAF7EB",
"` 	c #EDE2B2",
" .	c #F5EFD4",
"..	c #F1EAC6",
"+.	c #68634D",
"@.	c #F0E8C1",
"#.	c #EEE3B6",
"$.	c #DDD3A4",
"%.	c #F1E8C3",
"&.	c #EEE4B8",
"*.	c #7C765C",
"=.	c #67624C",
"-.	c #EADFAE",
";.	c #ECE2B1",
">.	c #D2C9A0",
",.	c #423E31",
"'.	c #14130F",
").	c #434033",
"!.	c #EDE3B3",
"~.	c #494636",
"{.	c #000000",
"].	c #ECE1AF",
"^.	c #827C60",
"/.	c #434031",
"(.	c #13120E",
"_.	c #474747",
":.	c #767676",
"<.	c #4E4E4E",
"[.	c #E5DAAA",
"}.	c #7B755B",
"|.	c #A7A7A7",
"1.	c #858585",
"2.	c #414141",
"3.	c #565656",
"4.	c #292929",
"5.	c #898367",
"6.	c #4C4C4C",
"7.	c #736F60",
"8.	c #D1C79B",
"9.	c #B9B089",
"0.	c #C5BC92",
"a.	c #7F7F7F",
"b.	c #8B8569",
"c.	c #494637",
"d.	c #ABA37F",
"e.	c #767057",
"f.	c #B2A984",
"g.	c #8C8568",
"h.	c #E4D9A9",
"i.	c #A8A07C",
"j.	c #D6CC9F",
"k.	c #9B9473",
"l.	c #8F886A",
"m.	c #ADA580",
"n.	c #B4AB85",
"o.	c #635E49",
"p.	c #65604B",
"          . + @ # $ $ % & & * = = = = = = = = = = = = = = = = = = = = = = = = = = = = = = = = - - ; > , ' ) ! ~ { ] ^           ",
"      / ( ( . _ . _ _ . + + + @ @ : @ @ @ @ @ @ @ @ @ @ < : @ @ @ @ < < @ @ @ @ @ < @ @ @ # < # # $ [ = > ' ) ~ { } | 1 2       ",
"    / 3 / 3 3 4 5 5 6 6 6 7 5 5 5 5 5 7 5 5 4 7 5 5 4 7 5 5 5 7 5 7 5 4 4 7 5 4 5 4 5 5 5 4 5 4 4 4 _ < % = > ! ~ } 8 2 9 0     ",
"  / / 3 4 5 a b c d e f e g g d d d e e d d g d d d d d d d d e h e d d e d d g d d d e d d d h c i a 5 / @ [ > j } 1 k l m n   ",
"  / 3 4 6 b d o p q r r r q s t t t p p p t p t u p u p u u u p p u t p u u p u u u p u p u p p v w f d a 4 + & ' x y 9 m z A   ",
". ( / 5 b f p B C D E F C G H I I I I I I I I I I I J I J I J I H J I I I J I I I I H J I I K B B r u o g b 4 + = ) L k M N O P ",
"+ _ 3 6 d p G E Q Q R R F C G G I I I I I I I I I I I I I I I I I I H I I I I I I I I I I I I I J J q p o d S 3 % ' } 2 T U V W ",
"@ . 4 X o B R Y Z Q R E G H I I J J I J J I J I K K I I I J I J J I B J I J J I B J I J J I B I J r q p ` f X 6 + ; x 1 M O W W ",
"# _ 4 h p  .Q Y Q R D  .G K B r ............r ..................r r r r r ..............r r r r r q t p ` f g 6 / & ) 8 M +.W W ",
"$ . 6 d q E Y Q R E  .H B r q q @.@.@.@.@.@.@.@.@.@.@.@.@.@.@.t q q @.@.@.@.@.@.@.@.@.@.@.q @.@.s t u #.w f d $.4 % ) | m +.W W ",
"$ _ 6 g r E Q R F  .H B %.t t t t p t t t u u u u u u u t u t t u u t u u u u t u u t u u u u u u p &.` f f d $.4 @ ' L *.=.W W ",
"% . 6 f r F E E C H B r s p t p p p p p p p p p p p p p p p p p p p p p p p p p p p p p p p p p p p #.` -.f d $.4 . , ^ *.=.W W ",
"& + 6 f r F F  .G B q q ;.v >.2 ,.'.'.).k 4 ` f ;.v v v !.v !.v !.!.!.!.v !.!.!.p p p p p p p p v #.` f g g i $.4 + > } l +.W W ",
"[ + 6 g q G G G K r u u w - ~.{.{.{.{.{.{.~.- w w w w o o !.` o w w ` ].w w ` ].;.!.!.v !.v v v ` ` o g g d i $.4 < > } *.P W W ",
"* < 5 e t H G H B q t p 4 ~.{.{.{.{.{.{.{.{.~.( ].].w o ].].].].o ` o ].o ].].].w ` ].w w o ` ` ].].f g g d X $.5 + > } *.P W W ",
"= @ 5 e t I H B B s u p 9 {.{.{.{.{.{.{.{.{.{.^.].].o !.].].].].w o ].].` o ].].o !.].o ].].].].].].f g g d i $.4 < > } *.P W W ",
"= @ 7 d u J H J r @.t p /.{.{.{.{.{.{.{.{.{.{.,.].].].].].].].].].].].].].].].].w o ].].].].].].].o f f g i i S 4 < > } *.P W W ",
"= @ 4 d u I I B ..@.u p '.{.{.{.{.{.{.{.{.{.{.(.].].].].].].].].].].].].].].].].].].].].].].].].].o f g g g i S 4 < > } *.=.W W ",
"= @ 5 d u J I I ..@.u p '.{.{.{.{.{._.:.<.{.{.(.].].].].].].].].].].].].].].].].].].].].].].].].].o f [.d h i S >.+ > } }.=.W W ",
"= @ 5 d p I I I ..@.u p /.{.{.{.{.{.:.|.1.2.{.,.].].].].].].].].].].].].].].].].].].].].].].].].].o f [.g g i S 4 . > } }.V W W ",
"= @ 4 d t I I J ..@.t p 9 {.{.{.{.{.<.1.1.3.4.5.].].].].].].].].].].].].].].].].].].].].].].].].].o f d e d i S 4 < > } *.V W W ",
"= @ 7 d u J I J ..@.u p 4 ~.{.{.{.{.{.2.3.6.7.>.].].].].].].].].].].].].].].].].].].].].].].].].].o f e d d i S >.< > } *.=.W W ",
"= @ 5 d p I I I ..@.t p ].; ~.{.{.{.{.{.4.7.< f ].].].].].].].].].].].].].].].].].].].].].].].].].o f d g g b S 4 . > } }.=.W W ",
"= @ 5 e t I I J r @.u p ].` 3 9 /.'.'./.2 7 -.g ].].].].].].].].].].].].].].].].].].].].].].].].].o f e d h i S 4 + > } }.V W W ",
"= @ 5 d p H I J r q p p !.` o ].].].].].].].].].].].].].].].].].].].].].].].].].].].].].].].].].].].-.f g h i S 4 + > } *.V W W ",
"= @ 5 d u J I I r q u p v o ].].].].].].].].].].].].].].].].].].].].].].].].].].].].].].].].].].].` ].f g g i S 4 + > } *.P W W ",
"= @ 4 g t I H K r @.u p !.` ].].].].].].].].].].].].].].].].].].].].].].].].].].].].].].].].].].].].-.f g i i S 4 + > } }.V W W ",
"= @ 7 d p I I B r q u p v ].].].].].].].].].].].].].].].].].].].].].].].].].].].].].].].].].].].].].f g g g i S >.. > } *.=.W W ",
"= @ 5 d u B I I ..@.u p v o ].].].].].].].].].].].].].].].].].].].].].].].].].].].].].].].].].].].].-.f g h i S 4 < > } *.V W W ",
"= @ 5 d u I H K ..@.u p v w ].].].].].].].].].].].].].].].].].].].].].].].].].].].].].].].].].].].].-.f g h i S >.< > } *.=.W W ",
"= @ 4 d p J I B ..@.t p v w o ].].].].].].].].].].].].].].].].].].].].].].].].].].].].].].].].].].].].f d d X $.4 . > } }.=.W W ",
"= @ 7 d t I I I ..@.u p !.w ` o ].].].].].].].].].].].].].].].].].].].].].].].].].].].].].].].].].].-.f g d i $.4 + > } }.V W W ",
"= < 5 d t I I J r @.u p !.` ].].].].].].].].].].].].].].].].].].].].].].].].].].].].].].].].].].].].].f d h i S 4 < > } *.V W W ",
"= < 4 d p I I J r @.u p !.].].].].].].].].].].].].].].].].].].].].].].].].].].].].].].].].].].].].].f f g g i S 4 < > } *.=.W W ",
"= @ 5 d t J I I ..@.u p v o ].].].].].].].].].].].].].].].].].].].].].].].].].].].].].].].].].].].].].f d h i S >.< > } *.W W W ",
"= @ 7 e p I I J ..@.u p !.` ].].].].].].].].].].].].].].].].].].].].].].].].].].].].].].].].].].].].].f g d i S 4 . > } *.=.W W ",
"= @ 5 h p I I J ..@.t p !.w o ].].].].].].].].].].].].].].].].].].].].].].].].].].].].].].].].].].].].f e d i S 4 < > } *.V W W ",
"= @ 7 e t I I I ..@.u p v w ` o ].].].].].].].].].].].].].].].].].].].].].].].].].].].].].].].].].].].f d d i S >.< > } *.=.W W ",
"= < 5 d p I I J r @.u p ` w ].o ].].].].].].].].].].].].].].].].].].].].].].].].].].].].].].].].].].].f d d b S 4 . > } }.=.W W ",
"= < 4 d t I I I ..@.u p #.].].` ].].].].].].].].].].].].].].].].].].].].].].].].].].].].].].].].].].f f e d i S 4 + > } }.V W W ",
"= @ 4 e u I I J r @.t p v w ].].].].].].].].].].].].].].].].].].].].].].].].].].v o 8.9 ,.'.'./.9 4 ].].g i i S 4 + > } *.V W W ",
"= @ 7 d u J I J r @.u p v w ].o ].].].].].].].].].].].].].].].].].].].].].].].].v - ~.{.{.{.{.{.{.~.; ].g g i S 4 + > } *.P W W ",
"= @ 5 d p I I I B @.u p ;.w o !.].].].].].].].].].].].].].].].].].].].].].].].].>.~.{.{.{.{.{.{.{.{.~.3 g i i S 4 + > } }.V W W ",
"= @ 4 g u I I J r @.u p v w w o ].].].].].].].].].].].].].].].].].].].].].].].].2 {.{.{.{.{.{.{.{.{.{.9 g g i S >.. > } *.=.W W ",
"9.@ >.d u J I I r @.u p #.o ].].].].].].].].].].].].].].].].].].].].].].].].].]./.{.{.{.{.{.{.{.{.{.{./.d h i S 4 < > } *.V W W ",
"9.0.7 d u J I J r @.u p ` ` ].].].].].].].].].].].].].].].].].].].].].].].].].].'.{.{.{.{.{.{.{.{.{.{.'.g d i S >.< > ^ *.=.W W ",
"9.0.4 g p B I J r s t p #.o ].].].].].].].].].].].].].].].].].].].].].].].].].].'.{.{.{.{.{._.:.<.{.{.'.g d i S 4 + > ^ }.=.W W ",
"9.0.4 d p B J J r q u p v w ].].].].].].].].].].].].].].].].].].].].].].].].].].).{.{.{.{.{.:.|.1.2.{./.g i i $.4 < > ^ m W W W ",
"; # 4 h #.r I J r s t v #.].].].].].].].].].].].w w o ` ].].].].].].].].].].` -.2 {.{.{.{.{.<.1.a.3.4.b.g h b S 4 0., L m W W W ",
"; % 3 X ` r B r r t p p ` ` ].].o ` ].].].].].].w o ].o ].` ].].].].].].].].-.w >.c.{.{.{.{.{.2.3.<.7.7 d d b a 8.# d.8 e.W W W ",
"f.& ( $.f p %.q t u v ` ` ].o o o o o o o o o o o o o o -.-.w f -.].-.].-.].f w ` - ~.{.{.{.{.{.4.7.< w d X b 6 / & ) g.N W W W ",
"> = + 4 d ` p p p #.` ` o f f f g g g g f f f f f f f f f f f g f f f f f f g g o f _ 9 ,.(.(.,.5.4 g g h b 6 4 + = ~ k O W W W ",
"' > % / $.d o ` ` ` -.-.f e e f g d g g g g d g e e g d g d g g d d d f g g d g e d d e g g g g e e d X X S 6 / # > } *.P W W W ",
") ' 9.@ 4 b e f f f f g e d d d d d i g h.h.d d d d d d g h i g d d d d h.d h.d d d d d i g h h d d X X a 6 8.+ = j 1 n W W W W ",
"! ) > * + 4 $.i d d d h h i X i X i i i i i X i X X i X b i i i i X X X X i i X i X X X b i i i b X $.a 5 3 + & ' } 0 O W W W W ",
"~ ~ ! > & < 8.6 S S b $.b $.S S $.a $.$.$.6 $.$.a $.$.S S S S S $.S S S S S $.S $.S S S S S S S 6 a 6 4 3 + % > { 2 N W W W W W ",
"{ { { i.' = $ < / 8.4 7 4 5 4 4 4 4 4 4 >.4 4 4 4 4 4 4 4 >.4 4 4 4 4 4 >.4 j.4 4 4 4 4 4 5 4 4 4 4 / . # = ' { g.T P W W W W W ",
"k.} } } { ) ' ; [ $ # < . < < < < < + + + + + + + + . . + + + + + + + + + + + + < < . < < < < < @ $ % = , j } 2 M P W W W W W W ",
"^ | l.l.| | k.~ ! m.' > > n.> > > > > > f.f.f.; f.f.f.f.f.f.f.f.f.f.f.f.f.f.f.f.> > > > > > > > ' d.) x } l.0 z P W W W W W W W ",
"  l.2 9 9 2 2 b.l.| | ^ ^ } ^ ^ } } } } } } } } } } } } } ] } } ^ } } } ] } } } } } } } ^ } } ^ L y 5.2 *.z O W W W W W W W W   ",
"  2 9 0 }.m T M }.}.}.}.l l }.}.*.*.*.*.*.*.*.*.l *.*.*.*.*.*.*.*.*.*.*.*.*.*.*.*.*.*.*.*.m m m m e.N O P W W W W W W W W W W   ",
"    l m z A U +.+.=.=.=.=.=.=.=.V =.V =.=.V V =.P V V P V V =.V =.V V V P V V +.V P P V P P P P W o.W W W W W W W W W W W W     ",
"      n A O p.W W W W W W W W W W W W W W W W W W W W W W W W W W W W W W W V W W W W W W W W W W W W W W W W W W W W W W       ",
"          =.W W W W W W W W W W W W W W W W W W W W W W W W W W W W W W W W W W W W W W W W W W W W W W W W W W W W W           "};
